<svg version="1.1" id="レイヤー_1" xmlns="http://www.w3.org/2000/svg" x="0" y="0" width="100" height="112.5" xml:space="preserve"><style>.st0{fill:#d71618}</style><path class="st0" d="M22.7 89.1c.6 0 6.4-4.5 6.4-10.1 0-4.8-2.1-8.8-5-9.8l-1.4 3.5-1.4-3.5c-2.9 1-5 5-5 9.8 0 5.6 5.8 10.1 6.4 10.1zM7.8 94.3c5.3 1.7 11.4-2.4 11.6-3 .2-.6-2.3-7.5-7.6-9.2-4.6-1.5-9.1-.7-10.9 1.7l2.9 2.4-3.8.3c.1 3.1 3.2 6.3 7.8 7.8zM19.7 107.2c3.3-4.5 1.2-11.5.7-11.9-.5-.4-7.8-.1-11.1 4.4-2.8 3.9-3.5 8.4-1.7 10.9l3.2-2-1 3.7c3 .7 7.1-1.2 9.9-5.1zM35.6 99.8c-3.3-4.5-10.6-4.7-11.1-4.4-.5.4-2.5 7.4.7 11.9 2.8 3.9 6.9 5.9 9.8 5l-.9-3.7 3.2 2c1.7-2.4 1.1-6.9-1.7-10.8zM25.9 91.6c.2.6 6.3 4.7 11.6 3 4.6-1.5 7.7-4.8 7.8-7.8l-3.8-.2 2.9-2.4c-1.8-2.4-6.3-3.2-10.9-1.7-5.3 1.7-7.8 8.6-7.6 9.1z"/><g><path class="st0" d="M77.5 19.9c.6 0 6.4-4.5 6.4-10.1 0-4.8-2.1-8.8-5-9.8l-1.4 3.5L76.1 0c-2.9 1-5 5-5 9.8 0 5.6 5.8 10.1 6.4 10.1zM62.6 25.1c5.3 1.7 11.4-2.4 11.6-3 .2-.6-2.3-7.5-7.6-9.2-4.6-1.5-9.1-.7-10.9 1.7l2.9 2.4-3.8.2c0 3.1 3.2 6.4 7.8 7.9zM74.5 37.9c3.3-4.5 1.2-11.5.7-11.9-.5-.4-7.8-.1-11.1 4.4-2.8 3.9-3.5 8.4-1.7 10.9l3.2-2-1 3.7c2.9.8 7-1.2 9.9-5.1zM90.3 30.6c-3.3-4.5-10.6-4.7-11.1-4.4-.5.4-2.5 7.4.7 11.9 2.8 3.9 6.9 5.9 9.8 5l-.9-3.7 3.2 2c1.8-2.4 1.2-6.9-1.7-10.8zM80.7 22.4c.2.6 6.3 4.7 11.6 3 4.6-1.5 7.7-4.8 7.8-7.8l-3.8-.2 2.9-2.4c-1.8-2.4-6.3-3.2-10.9-1.7-5.3 1.6-7.8 8.5-7.6 9.1z"/></g></svg>