<svg version="1.1" id="レイヤー_1" xmlns="http://www.w3.org/2000/svg" x="0" y="0" width="200" height="298.1" xml:space="preserve"><style>.st0{fill:#d71618}</style><path class="st0" d="M63 277.1c.5 0 5.7-4 5.7-9 0-4.3-1.9-7.9-4.5-8.8l-1.2 3.2-1.2-3.2c-2.6.9-4.5 4.5-4.5 8.8-.1 5 5.1 9 5.7 9zM49.6 281.8c4.7 1.5 10.2-2.1 10.4-2.7.2-.5-2.1-6.7-6.8-8.3-4.1-1.3-8.1-.6-9.8 1.6l2.6 2.2-3.4.2c0 2.7 2.9 5.6 7 7zM60.3 293.3c2.9-4 1.1-10.4.7-10.7-.4-.3-7-.1-10 3.9-2.5 3.5-3.1 7.5-1.5 9.8l2.9-1.8-.9 3.3c2.5.8 6.2-1 8.8-4.5zM74.5 286.7c-2.9-4-9.5-4.3-10-3.9-.4.3-2.3 6.6.7 10.7 2.5 3.5 6.2 5.3 8.8 4.5l-.9-3.3 2.9 1.8c1.6-2.3 1-6.3-1.5-9.8zM65.8 279.4c.2.5 5.6 4.2 10.4 2.7 4.1-1.3 6.9-4.3 7-7l-3.4-.2 2.6-2.1c-1.6-2.2-5.7-2.9-9.8-1.6-4.7 1.5-7 7.6-6.8 8.2z"/><g><path class="st0" d="M179.8 206.5c.5 0 5.7-4 5.7-9 0-4.3-1.9-7.9-4.5-8.8l-1.2 3.2-1.2-3.2c-2.6.9-4.5 4.5-4.5 8.8 0 4.9 5.1 9 5.7 9zM166.4 211.2c4.7 1.5 10.2-2.1 10.4-2.7.2-.5-2.1-6.7-6.8-8.3-4.1-1.3-8.1-.6-9.8 1.6l2.6 2.2-3.4.2c.1 2.7 2.9 5.6 7 7zM177.1 222.7c2.9-4 1.1-10.4.7-10.7-.4-.3-7-.1-10 3.9-2.5 3.5-3.1 7.5-1.5 9.8l2.9-1.8-.9 3.3c2.6.8 6.2-1 8.8-4.5zM191.3 216.1c-2.9-4-9.5-4.3-10-3.9-.4.3-2.3 6.6.7 10.7 2.5 3.5 6.2 5.3 8.8 4.5l-.8-3.4 2.9 1.8c1.5-2.2 1-6.2-1.6-9.7zM182.6 208.7c.2.5 5.6 4.2 10.4 2.7 4.1-1.3 6.9-4.3 7-7l-3.4-.2 2.6-2.1c-1.6-2.2-5.7-2.9-9.8-1.6-4.7 1.5-6.9 7.7-6.8 8.2z"/></g><g><path class="st0" d="M42.8 37.5c1.1 0 12-8.5 12-19 0-9.1-4-16.6-9.5-18.5l-2.6 6.6L40.2 0c-5.4 1.9-9.5 9.4-9.5 18.5 0 10.5 10.9 19 12.1 19zM14.7 47.3c10 3.2 21.4-4.5 21.8-5.6.4-1.1-4.4-14.1-14.3-17.3C13.5 21.5 5 23 1.6 27.6l5.5 4.5-7.1.5c.1 5.7 6 11.9 14.7 14.7zM37.1 71.4c6.1-8.5 2.3-21.7 1.4-22.4-.9-.7-14.7-.2-20.9 8.3-5.3 7.3-6.5 15.8-3.2 20.5l6-3.8-1.8 6.9c5.4 1.6 13.1-2.1 18.5-9.5zM67 57.6c-6.2-8.5-20-8.9-20.9-8.3-.9.7-4.8 14 1.4 22.4 5.3 7.3 13 11.1 18.5 9.4l-1.8-6.9 6 3.9c3.3-4.7 2.1-13.2-3.2-20.5zM48.7 42.2c.4 1.1 11.8 8.8 21.8 5.6 8.6-2.8 14.6-9 14.7-14.7l-7.1-.4 5.5-4.5c-3.4-4.6-11.9-6.1-20.5-3.3-10 3.2-14.7 16.2-14.4 17.3z"/></g></svg>