<svg version="1.1" id="レイヤー_1" xmlns="http://www.w3.org/2000/svg" x="0" y="0" width="300" height="212.8" xml:space="preserve"><style>.st0{fill:#d71618}</style><path class="st0" d="M274.8 22.3c.7 0 7.2-5 7.2-11.3 0-5.4-2.4-9.9-5.6-11l-1.6 3.9-1.5-3.9c-3.2 1.1-5.6 5.6-5.6 11-.1 6.2 6.4 11.3 7.1 11.3zM258.1 28.1c5.9 1.9 12.7-2.7 12.9-3.3.2-.7-2.6-8.4-8.5-10.3-5.1-1.7-10.2-.8-12.2 1.9l3.3 2.7-4.2.2c0 3.5 3.6 7.1 8.7 8.8zM271.4 42.5c3.7-5 1.4-12.9.8-13.3-.6-.4-8.8-.1-12.4 4.9-3.2 4.4-3.9 9.4-1.9 12.2l3.6-2.3-1.1 4.1c3.2 1 7.8-1.3 11-5.6zM289.2 34.2c-3.7-5-11.9-5.3-12.4-4.9-.6.4-2.8 8.3.8 13.3 3.2 4.4 7.8 6.6 11 5.6l-1.1-4.1 3.6 2.3c2-2.7 1.3-7.8-1.9-12.2zM278.3 25.1c.2.7 7 5.3 12.9 3.3 5.1-1.7 8.7-5.3 8.7-8.7l-4.2-.3 3.3-2.7c-2-2.7-7.1-3.6-12.2-1.9-5.9 1.9-8.7 9.6-8.5 10.3z"/><g><path class="st0" d="M48.6 162.6c1.3 0 13.7-9.7 13.7-21.6 0-10.3-4.6-18.9-10.7-21l-3 7.5-2.9-7.5c-6.2 2.1-10.7 10.7-10.7 21-.1 12 12.3 21.6 13.6 21.6zM16.7 173.8c11.3 3.7 24.3-5.1 24.7-6.4.4-1.2-4.9-16-16.3-19.7-9.8-3.2-19.4-1.5-23.3 3.7l6.3 5.2-8.1.5c.1 6.5 6.9 13.5 16.7 16.7zM42.2 201.2c7-9.6 2.6-24.7 1.6-25.5-1.1-.8-16.8-.2-23.7 9.4-6.1 8.4-7.4 18-3.7 23.3l6.8-4.4-2.1 7.8c6.2 2.1 15-2.2 21.1-10.6zM76.1 185.5c-7-9.6-22.7-10.2-23.8-9.4-1.1.8-5.4 15.9 1.6 25.5C60 210 68.8 214.2 75 212.3l-2-7.8 6.8 4.4c3.7-5.4 2.4-15-3.7-23.4zM55.4 168c.4 1.2 13.4 10 24.7 6.4 9.8-3.2 16.6-10.2 16.7-16.7l-8.1-.5 6.3-5.1c-3.9-5.2-13.5-6.9-23.3-3.7C60.4 152 55 166.8 55.4 168z"/></g></svg>