<svg version="1.1" id="レイヤー_1" xmlns="http://www.w3.org/2000/svg" x="0" y="0" width="200" height="346.7" xml:space="preserve"><style>.st0{fill:#d71618}</style><path class="st0" d="M42.7 84.4c1.1 0 12-8.5 12-18.9 0-9.1-4-16.6-9.4-18.5l-2.6 6.6-2.6-6.6c-5.4 1.9-9.4 9.4-9.4 18.5 0 10.4 10.8 18.9 12 18.9zM14.6 94.2c9.9 3.2 21.3-4.5 21.7-5.6.4-1.1-4.3-14-14.3-17.3-8.5-2.8-17-1.3-20.4 3.3l5.5 4.5-7.1.4c.1 5.7 6 11.9 14.6 14.7zM37 118.3c6.1-8.4 2.3-21.7 1.4-22.4-.9-.7-14.7-.2-20.8 8.2-5.3 7.3-6.5 15.8-3.2 20.5l6-3.8-1.8 6.9c5.4 1.6 13.1-2.1 18.4-9.4zM66.8 104.4C60.7 96 46.9 95.5 46 96.2c-.9.7-4.7 13.9 1.4 22.4 5.3 7.3 13 11.1 18.5 9.4l-1.8-6.9 6 3.8c3.2-4.7 2-13.1-3.3-20.5zM48.6 89.1c.4 1.1 11.8 8.8 21.7 5.6 8.6-2.8 14.5-9 14.6-14.7l-7.1-.4 5.5-4.5c-3.4-4.6-11.9-6.1-20.5-3.3C53 75 48.3 88 48.6 89.1z"/><g><path class="st0" d="M169.3 21.4c.7 0 6.9-4.8 6.9-10.8 0-5.2-2.3-9.5-5.4-10.6l-1.5 3.8-1.5-3.8c-3.1 1.1-5.4 5.4-5.4 10.6 0 5.9 6.2 10.8 6.9 10.8zM153.2 27c5.7 1.8 12.2-2.6 12.4-3.2.2-.6-2.5-8-8.2-9.9-4.9-1.6-9.7-.7-11.7 1.9l3.1 2.6-4.1.2c.2 3.3 3.6 6.8 8.5 8.4zM166 40.8c3.5-4.8 1.3-12.4.8-12.8-.5-.4-8.4-.1-11.9 4.7-3 4.2-3.7 9-1.8 11.7l3.4-2.2-1 3.9c3.1 1 7.5-1.1 10.5-5.3zM183.1 32.9c-3.5-4.8-11.4-5.1-11.9-4.7-.5.4-2.7 8 .8 12.8 3 4.2 7.4 6.3 10.6 5.4l-1-3.9 3.4 2.2c1.8-2.8 1.1-7.6-1.9-11.8zM172.7 24.1c.2.6 6.7 5 12.4 3.2 4.9-1.6 8.3-5.1 8.4-8.4l-4.1-.2 3.1-2.6c-2-2.6-6.8-3.5-11.7-1.9-5.6 1.8-8.3 9.3-8.1 9.9z"/></g><g><path class="st0" d="M168.1 313.6c.9 0 9.1-6.4 9.1-14.3 0-6.8-3-12.5-7.1-13.9l-2 5-1.9-5c-4.1 1.4-7.1 7.1-7.1 13.9 0 7.9 8.2 14.3 9 14.3zM147 320.9c7.5 2.4 16.1-3.4 16.4-4.2.3-.8-3.3-10.6-10.8-13-6.5-2.1-12.8-1-15.4 2.5l4.1 3.4-5.3.3c0 4.3 4.5 8.9 11 11zM163.8 339.1c4.6-6.4 1.7-16.4 1-16.9s-11.1-.2-15.7 6.2c-4 5.5-4.9 11.9-2.4 15.4l4.5-2.9-1.4 5.2c4.2 1.4 10-1.5 14-7zM186.3 328.7c-4.6-6.4-15-6.7-15.7-6.2-.7.5-3.6 10.5 1.1 16.9 4 5.5 9.8 8.3 13.9 7.1l-1.3-5.2 4.5 2.9c2.4-3.6 1.5-10-2.5-15.5zM172.6 317.1c.3.8 8.9 6.6 16.4 4.2 6.5-2.1 11-6.8 11-11.1l-5.4-.3 4.1-3.4c-2.6-3.4-8.9-4.6-15.4-2.5-7.4 2.5-11 12.3-10.7 13.1z"/></g></svg>