<svg version="1.1" id="レイヤー_1" xmlns="http://www.w3.org/2000/svg" x="0" y="0" width="200" height="258.8" xml:space="preserve"><style>.st0{fill:#d71618}</style><path class="st0" d="M54.8 202.3c1.5 0 15.4-10.9 15.4-24.3 0-11.6-5.2-21.3-12.1-23.7l-3.3 8.5-3.3-8.5c-6.9 2.4-12.1 12.1-12.1 23.7-.1 13.5 13.9 24.3 15.4 24.3zM18.8 214.9c12.7 4.1 27.4-5.8 27.8-7.2.5-1.4-5.6-18-18.3-22.2-11.1-3.6-21.9-1.7-26.3 4.2l7 5.8-9 .6c.1 7.3 7.7 15.2 18.8 18.8zM47.5 245.8c7.9-10.8 3-27.8 1.8-28.7-1.2-.9-18.9-.3-26.7 10.6-6.8 9.4-8.3 20.3-4.1 26.3l7.7-4.9-2.3 8.8c6.8 2.1 16.7-2.7 23.6-12.1zM85.7 228.1c-7.9-10.8-25.5-11.4-26.7-10.6-1.2.9-6.1 17.9 1.8 28.7 6.8 9.4 16.7 14.2 23.7 12l-2.3-8.8 7.7 4.9c4.2-5.9 2.6-16.8-4.2-26.2zM62.4 208.4c.5 1.4 15.1 11.3 27.8 7.2 11.1-3.6 18.7-11.5 18.8-18.8l-9.1-.6 7.1-5.8c-4.4-5.9-15.2-7.8-26.3-4.2-12.7 4.2-18.8 20.8-18.3 22.2z"/><g><path class="st0" d="M168.9 27.4c.8 0 8.8-6.2 8.8-13.9 0-6.7-3-12.2-6.9-13.6l-1.9 4.9L167 0c-4 1.4-6.9 6.9-6.9 13.6 0 7.6 8 13.8 8.8 13.8zM148.4 34.6c7.3 2.4 15.7-3.3 15.9-4.1.3-.8-3.2-10.3-10.5-12.7-6.3-2.1-12.5-1-15 2.4l4 3.3-5.2.3c.1 4.2 4.4 8.8 10.8 10.8zM164.8 52.3c4.5-6.2 1.7-15.9 1-16.4-.7-.5-10.8-.2-15.3 6-3.9 5.4-4.8 11.6-2.4 15l4.4-2.8-1.3 5c4 1.3 9.7-1.4 13.6-6.8zM186.7 42.2c-4.5-6.2-14.6-6.5-15.3-6-.7.5-3.5 10.2 1 16.4 3.9 5.4 9.6 8.1 13.6 6.9l-1.3-5.1 4.4 2.8c2.3-3.4 1.5-9.6-2.4-15zM173.3 30.9c.3.8 8.6 6.5 15.9 4.1 6.3-2.1 10.7-6.6 10.7-10.8l-5.2-.3 4-3.3c-2.5-3.3-8.7-4.5-15-2.4-7.2 2.4-10.6 11.9-10.4 12.7z"/></g></svg>