<svg xmlns="http://www.w3.org/2000/svg" width="100" height="100"><path d="M83.3 96.6H57.5c-.9 0-1.6-.7-1.6-1.6V69H44.2v25.9c0 .9-.7 1.6-1.6 1.6H16.7c-.9 0-1.6-.7-1.6-1.6V46.2H3.6c-.7 0-1.3-.4-1.5-1.1-.2-.6 0-1.4.5-1.8l14.3-12.2V13c0-.9.7-1.6 1.6-1.6h10.4c.9 0 1.6.7 1.6 1.6v6.6L48.9 3.8c.6-.5 1.5-.5 2.1 0l46.4 39.5c.5.4.7 1.2.5 1.8-.2.6-.9 1.1-1.5 1.1H84.9v48.7c0 .9-.7 1.7-1.6 1.7zm-24.2-3.3h22.5V44.5c0-.9.7-1.6 1.6-1.6H92L50 7.2 29.9 24.3c-.5.4-1.2.5-1.8.2-.6-.3-1-.9-1-1.5v-8.5H20v17.3c0 .5-.2.9-.6 1.3L8 42.9h8.7c.9 0 1.6.7 1.6 1.6v48.7h22.5V67.3c0-.9.7-1.6 1.6-1.6h14.9c.9 0 1.6.7 1.6 1.6v26z" fill="#fff"/></svg>