<svg version="1.1" id="レイヤー_1" xmlns="http://www.w3.org/2000/svg" x="0" y="0" width="100" height="100" xml:space="preserve"><style>.st0{fill:#fff}</style><path class="st0" d="M32.2 22.3H16.1c-.6 0-1.1-.3-1.3-.9-.2-.5-.1-1.1.3-1.5l16.1-16c.4-.4 1-.5 1.5-.3s.9.7.9 1.3V21c0 .7-.7 1.3-1.4 1.3zm-12.7-2.8h11.2V8.3L19.5 19.5z"/><path class="st0" d="M83.9 96.6H16.1c-.8 0-1.4-.6-1.4-1.4V20.9c0-.4.1-.7.4-1l16.1-16c.3-.3.6-.4 1-.4h51.7c.8 0 1.4.6 1.4 1.4v90.3c0 .7-.6 1.4-1.4 1.4zm-66.4-2.9h65V6.3H32.7L17.5 21.5v72.2z"/><g><path class="st0" d="M71.6 33.5H41.1c-.8 0-1.4-.6-1.4-1.4 0-.8.6-1.4 1.4-1.4h30.5c.8 0 1.4.6 1.4 1.4.1.7-.6 1.4-1.4 1.4zM71.6 49.5H28.4c-.8 0-1.4-.6-1.4-1.4 0-.8.6-1.4 1.4-1.4h43.3c.8 0 1.4.6 1.4 1.4 0 .8-.7 1.4-1.5 1.4zM71.6 65.6H28.4c-.8 0-1.4-.6-1.4-1.4 0-.8.6-1.4 1.4-1.4h43.3c.8 0 1.4.6 1.4 1.4 0 .8-.7 1.4-1.5 1.4zM55.9 81.7H28.4c-.8 0-1.4-.6-1.4-1.4 0-.8.6-1.4 1.4-1.4H56c.8 0 1.4.6 1.4 1.4-.1.8-.7 1.4-1.5 1.4z"/></g></svg>