<svg xmlns="http://www.w3.org/2000/svg" width="100" height="100"><path d="M98.9 43.1c0-21.9-22-39.7-48.9-39.7-27 0-48.9 17.8-48.9 39.7 0 19.6 17.4 36 40.9 39.1 1.6.4 3.8 1.1 4.3 2.4.5 1.2.3 3.2.2 4.4 0 0-.6 3.5-.7 4.2-.2 1.2-1 4.8 4.2 2.6 5.2-2.2 28.1-16.6 38.4-28.4 7.1-7.7 10.5-15.5 10.5-24.3zm-68 13h-9.7c-1.4 0-2.5-1.1-2.5-2.6V34.1c0-1.4 1.1-2.6 2.5-2.6s2.6 1.2 2.6 2.6V51h7.1c1.4 0 2.6 1.2 2.6 2.6-.1 1.4-1.2 2.5-2.6 2.5zm10-2.6c0 1.4-1.1 2.6-2.5 2.6s-2.6-1.1-2.6-2.6V34.1c0-1.4 1.2-2.6 2.6-2.6 1.4 0 2.5 1.2 2.5 2.6v19.4zm23.4 0c0 1.1-.7 2.1-1.8 2.4-.3.1-.5.1-.8.1-.8 0-1.6-.4-2-1l-9.9-13.6v12c0 1.4-1.2 2.6-2.6 2.6-1.4 0-2.6-1.1-2.6-2.6V34.1c0-1.1.7-2.1 1.8-2.4.3-.1.5-.1.8-.1.8 0 1.6.4 2.1 1l10 13.6v-12c0-1.4 1.1-2.6 2.6-2.6 1.4 0 2.6 1.2 2.6 2.6v19.3zM80 41.3c1.4 0 2.6 1.1 2.6 2.6 0 1.4-1.1 2.6-2.6 2.6h-7.1V51H80c1.4 0 2.6 1.2 2.6 2.6 0 1.4-1.1 2.6-2.6 2.6h-9.7c-1.4 0-2.6-1.1-2.6-2.6V34.2c0-1.4 1.1-2.6 2.6-2.6H80c1.4 0 2.6 1.2 2.6 2.6 0 1.4-1.1 2.6-2.6 2.6h-7.1v4.6l7.1-.1zm0 0" fill="#fff"/></svg>