<svg xmlns="http://www.w3.org/2000/svg" width="100" height="100"><path d="M76.1 86.5H55.9c-.7 0-1.3-.6-1.3-1.3V64.9h-9.1v20.3c0 .7-.6 1.3-1.3 1.3H23.9c-.7 0-1.3-.6-1.3-1.3V47h-9c-.5 0-1-.3-1.2-.8-.2-.5 0-1.1.4-1.4L24 35.2V21c0-.7.6-1.3 1.3-1.3h8.1c.7 0 1.3.6 1.3 1.3v5.1l14.5-12.3c.5-.4 1.2-.4 1.7 0l36.4 30.9c.4.3.6.9.4 1.4-.2.5-.7.8-1.2.8h-9v38.2c-.1.8-.7 1.4-1.4 1.4zm-19-2.6h17.7V45.7c0-.7.6-1.3 1.3-1.3h6.8L50 16.5 34.3 29.9c-.4.3-.9.4-1.4.2-.5-.2-.7-.7-.7-1.2v-6.6h-5.5v13.5c0 .4-.2.7-.5 1l-9 7.7H24c.7 0 1.3.6 1.3 1.3V84H43V63.6c0-.7.6-1.3 1.3-1.3H56c.7 0 1.3.6 1.3 1.3v20.3z" fill="#fff"/></svg>