<svg version="1.1" id="レイヤー_1" xmlns="http://www.w3.org/2000/svg" x="0" y="0" width="100" height="100" xml:space="preserve"><style>.st0{fill:#fff}</style><path class="st0" d="M39.1 78.2C17.5 78.2 0 60.7 0 39.1 0 17.6 17.5 0 39.1 0s39.1 17.6 39.1 39.1c0 21.6-17.5 39.1-39.1 39.1zm0-74.6C19.5 3.6 3.6 19.5 3.6 39.1s15.9 35.6 35.6 35.6 35.6-15.9 35.6-35.6C74.7 19.5 58.7 3.6 39.1 3.6z"/><path class="st0" d="M92.6 100c-1.9 0-3.8-.7-5.2-2.2L60.7 71.1c-.3-.3-.5-.8-.5-1.3s.2-.9.5-1.3l7.9-7.9c.7-.7 1.8-.7 2.5 0l26.7 26.7c2.9 2.9 2.9 7.6 0 10.5-1.4 1.5-3.3 2.2-5.2 2.2zM64.5 69.9l25.4 25.4c1.4 1.4 4 1.4 5.4 0 .7-.7 1.1-1.7 1.1-2.7 0-1-.4-2-1.1-2.7L69.9 64.5l-5.4 5.4z"/><g><path class="st0" d="M15.2 40.9c-1 0-1.8-.8-1.8-1.8 0-14.2 11.5-25.7 25.7-25.7 1 0 1.8.8 1.8 1.8s-.8 1.8-1.8 1.8C26.9 17 17 26.9 17 39.1c0 1-.8 1.8-1.8 1.8z"/></g></svg>