<svg version="1.1" id="レイヤー_1" xmlns="http://www.w3.org/2000/svg" x="0" y="0" width="100" height="100" xml:space="preserve"><style>.st0{fill:#f8ad3b}</style><path class="st0" d="M32.3 67.6c-11.3 0-20.4-9.2-20.4-20.4 0-11.3 9.2-20.4 20.4-20.4 11.3 0 20.4 9.2 20.4 20.4s-9.1 20.4-20.4 20.4zm0-38.3c-9.8 0-17.8 8-17.8 17.8s8 17.8 17.8 17.8 17.8-8 17.8-17.8c.1-9.8-8-17.8-17.8-17.8z"/><path class="st0" d="M4.9 78.7c-1.1 0-2.2-.4-3-1.2-.8-.8-1.2-1.8-1.2-3 0-1.1.4-2.2 1.2-3l13.7-13.7c.5-.5 1.3-.5 1.8 0l4.1 4.1c.2.2.4.6.4.9 0 .3-.1.7-.4.9L7.9 77.5c-.8.8-1.9 1.2-3 1.2zm11.6-18L3.8 73.4c-.3.3-.5.7-.5 1.1 0 .4.2.8.5 1.1.6.6 1.6.6 2.2 0l12.8-12.8-2.3-2.1z"/><g><path class="st0" d="M89.2 86.5H30c-.7 0-1.3-.6-1.3-1.3V66.3c0-.7.6-1.3 1.3-1.3.7 0 1.3.6 1.3 1.3v17.6h56.6V38.6c0-.7.6-1.3 1.3-1.3.7 0 1.3.6 1.3 1.3v46.6c0 .7-.6 1.3-1.3 1.3z"/><path class="st0" d="M98 46.5c-.3 0-.6-.1-.8-.3L59.6 16.5l-18 14.3c-.6.4-1.4.4-1.8-.2-.4-.6-.3-1.4.2-1.8l18.8-14.9c.5-.4 1.1-.4 1.6 0l38.4 30.4c.6.4.7 1.3.2 1.8-.3.2-.6.4-1 .4zM94.5 86.5H24.7c-.7 0-1.3-.6-1.3-1.3 0-.7.6-1.3 1.3-1.3h69.8c.7 0 1.3.6 1.3 1.3 0 .7-.6 1.3-1.3 1.3z"/><path class="st0" d="M66.5 86.5H52.7c-.7 0-1.3-.6-1.3-1.3V58.3c0-.7.6-1.3 1.3-1.3h13.8c.7 0 1.3.6 1.3 1.3v26.9c0 .7-.6 1.3-1.3 1.3zM54 83.9h11.2V59.6H54v24.3zM42.3 29.4c-.7 0-1.3-.6-1.3-1.3v-8.9h-5.4v8.7c0 .7-.6 1.3-1.3 1.3-.7 0-1.3-.6-1.3-1.3v-10c0-.7.6-1.3 1.3-1.3h8c.7 0 1.3.6 1.3 1.3v10.2c0 .8-.6 1.3-1.3 1.3z"/></g></svg>