<svg version="1.1" id="レイヤー_1" xmlns="http://www.w3.org/2000/svg" x="0" y="0" width="100" height="100" xml:space="preserve"><style>.st0{fill:#d71618}</style><path class="st0" d="M55.1 86.3H17.4C7.8 86.3 0 78.5 0 68.8V31.2c0-9.6 7.8-17.4 17.4-17.4h37.7c9.6 0 17.4 7.8 17.4 17.4v37.7c.1 9.6-7.8 17.4-17.4 17.4zM17.4 16.7C9.5 16.7 3 23.2 3 31.2v37.7c0 8 6.5 14.5 14.5 14.5h37.7c8 0 14.5-6.5 14.5-14.5V31.2c0-8-6.5-14.5-14.5-14.5H17.4z"/><path class="st0" d="M36.3 70.4c-11.2 0-20.4-9.1-20.4-20.4 0-11.2 9.1-20.4 20.4-20.4 11.2 0 20.4 9.1 20.4 20.4-.1 11.2-9.2 20.4-20.4 20.4zm0-37.8c-9.6 0-17.4 7.8-17.4 17.4 0 9.6 7.8 17.4 17.4 17.4S53.7 59.6 53.7 50c0-9.6-7.8-17.4-17.4-17.4z"/><g><path class="st0" d="M98.5 75c-.2 0-.3 0-.5-.1l-27.4-9.8c-.6-.2-1-.8-1-1.4V36.3c0-.6.4-1.2 1-1.4L98 25.1c.5-.2 1-.1 1.4.2.4.3.6.7.6 1.2v47.1c0 .5-.2.9-.6 1.2-.3.1-.6.2-.9.2zM72.6 62.7L97 71.4V28.6l-24.4 8.7v25.4z"/></g></svg>