<svg version="1.1" id="レイヤー_1" xmlns="http://www.w3.org/2000/svg" x="0" y="0" width="100" height="100" xml:space="preserve"><style>.st0{fill:#fff}</style><path class="st0" d="M36 28.3H23.4c-.4 0-.9-.3-1-.7-.2-.4-.1-.9.2-1.2l12.6-12.6c.3-.3.8-.4 1.2-.2.4.2.7.6.7 1v12.6c0 .6-.5 1.1-1.1 1.1zm-9.9-2.2h8.8v-8.8l-8.8 8.8z"/><path class="st0" d="M76.6 86.5H23.4c-.6 0-1.1-.5-1.1-1.1V27.2c0-.3.1-.6.3-.8l12.6-12.6c.2-.2.5-.3.8-.3h40.6c.6 0 1.1.5 1.1 1.1v70.8c0 .6-.5 1.1-1.1 1.1zm-52.1-2.2h50.9V15.7h-39l-11.9 12v56.6z"/><g><path class="st0" d="M67 37H43.1c-.6 0-1.1-.5-1.1-1.1 0-.6.5-1.1 1.1-1.1H67c.6 0 1.1.5 1.1 1.1 0 .6-.5 1.1-1.1 1.1zM67 49.6H33c-.6 0-1.1-.5-1.1-1.1 0-.6.5-1.1 1.1-1.1h34c.6 0 1.1.5 1.1 1.1 0 .7-.5 1.1-1.1 1.1zM67 62.2H33c-.6 0-1.1-.5-1.1-1.1 0-.6.5-1.1 1.1-1.1h34c.6 0 1.1.5 1.1 1.1 0 .7-.5 1.1-1.1 1.1zM54.7 74.9H33c-.6 0-1.1-.5-1.1-1.1 0-.6.5-1.1 1.1-1.1h21.6c.6 0 1.1.5 1.1 1.1.1.6-.4 1.1-1 1.1z"/></g></svg>