<svg version="1.1" id="レイヤー_1" xmlns="http://www.w3.org/2000/svg" x="0" y="0" width="100" height="91.9" xml:space="preserve"><style>.st0{fill:#d71618}</style><path class="st0" d="M87.3 91.9H12.7c-.9 0-1.6-.7-1.6-1.6V31.6c0-.9.7-1.6 1.6-1.6s1.6.7 1.6 1.6v57.1h71.3V31.6c0-.9.7-1.6 1.6-1.6.9 0 1.6.7 1.6 1.6v58.7c.1.9-.6 1.6-1.5 1.6z"/><path class="st0" d="M98.4 41.5c-.4 0-.7-.1-1-.4L50 3.7 2.7 41.2c-.7.6-1.7.4-2.3-.3-.6-.7-.4-1.7.3-2.3L49 .4c.6-.5 1.4-.5 2 0l48.4 38.3c.7.6.8 1.6.3 2.3-.4.3-.9.5-1.3.5zM94 91.9H6c-.9 0-1.6-.7-1.6-1.6 0-.9.7-1.6 1.6-1.6h88c.9 0 1.6.7 1.6 1.6 0 .9-.7 1.6-1.6 1.6z"/><path class="st0" d="M58.7 91.9H41.3c-.9 0-1.6-.7-1.6-1.6V56.4c0-.9.7-1.6 1.6-1.6h17.4c.9 0 1.6.7 1.6 1.6v33.8c.1 1-.7 1.7-1.6 1.7zm-15.8-3.3h14.2V58.1H42.9v30.5zM18.2 27.4c-.9 0-1.6-.7-1.6-1.6V5.5c0-.9.7-1.6 1.6-1.6h10.1c.9 0 1.6.7 1.6 1.6v11.8c0 .9-.7 1.6-1.6 1.6-.9 0-1.6-.7-1.6-1.6V7.2h-6.8v18.6c-.1.9-.8 1.6-1.7 1.6z"/></svg>