<svg version="1.1" id="レイヤー_1" xmlns="http://www.w3.org/2000/svg" x="0" y="0" width="100" height="74.1" xml:space="preserve"><style>.st0{fill:#d71618}</style><path class="st0" d="M42.1 52H16.8C7.5 52 0 44.5 0 35.3 0 26 7.5 18.5 16.8 18.5h25.3c.8 0 1.5.7 1.5 1.5v30.6c0 .8-.7 1.4-1.5 1.4zM16.8 21.5C9.2 21.5 3 27.6 3 35.3 3 42.9 9.2 49 16.8 49h23.8V21.5H16.8z"/><path class="st0" d="M87.9 70.5c-.3 0-.7-.1-.9-.3l-5.1-4.1C70.7 57 56.5 52 42.1 52c-.8 0-1.5-.7-1.5-1.5V20c0-.8.7-1.5 1.5-1.5 14.4 0 28.6-5 39.8-14.1L87 .3c.4-.4 1.1-.4 1.6-.2s.8.8.8 1.3V69c0 .6-.3 1.1-.8 1.3-.2.2-.4.2-.7.2zM43.6 49.1c14.6.3 28.8 5.5 40.2 14.7l2.6 2.1V4.6l-2.6 2.1c-11.4 9.2-25.6 14.4-40.2 14.7v27.7zM22.2 74.1c-2.2 0-4.2-1.1-5.5-2.9-1.2-1.8-1.4-4.1-.6-6.2l6.2-15c.2-.6.8-.9 1.4-.9h11c.5 0 1 .2 1.2.7.3.4.3.9.1 1.4L28.3 70c-1.1 2.5-3.4 4.1-6.1 4.1zM24.7 52l-5.8 14.1c-.5 1.1-.3 2.3.3 3.4.7 1 1.8 1.6 3 1.6 1.5 0 2.8-.9 3.3-2.2l7-16.9h-7.8z"/><path class="st0" d="M87.9 48c-.8 0-1.5-.7-1.5-1.5V24c0-.8.7-1.5 1.5-1.5 6.6 0 12.1 5.4 12.1 12.1V36c0 6.6-5.4 12-12.1 12zm1.5-22.4v19.3c4.3-.7 7.6-4.5 7.6-8.9v-1.4c0-4.5-3.3-8.3-7.6-9z"/></svg>