<svg version="1.1" id="レイヤー_1" xmlns="http://www.w3.org/2000/svg" x="0" y="0" width="100" height="100" xml:space="preserve"><style>.st0{fill:#fff}</style><path class="st0" d="M47.6 90.4c-.5 0-1-.2-1.3-.6L19.7 58.2c-5.3-6.4-8.3-14.5-8.3-22.8C11.5 15.9 27.3 0 46.8 0h1.6c19.5 0 35.4 15.9 35.4 35.4 0 8.3-2.9 16.4-8.3 22.8L48.9 89.8c-.3.4-.8.6-1.3.6zm-.8-87.1c-17.7 0-32 14.4-32 32 0 7.5 2.7 14.8 7.5 20.6L47.6 86 73 56c4.8-5.8 7.5-13.1 7.5-20.6 0-17.7-14.4-32-32-32h-1.7zm27.4 53.8z"/><path class="st0" d="M47.6 56.7c-11.8 0-21.4-9.6-21.4-21.4 0-11.8 9.6-21.4 21.4-21.4C59.4 14 69 23.6 69 35.4s-9.6 21.3-21.4 21.3zm0-39.3c-9.9 0-18 8.1-18 18s8.1 18 18 18 18-8.1 18-18-8-18-18-18z"/><g><path class="st0" d="M91.1 100h-87c-.6 0-1.1-.3-1.4-.8-.3-.5-.3-1.1 0-1.6l14.5-27.5c.3-.5.9-.9 1.5-.9h12.5c.9 0 1.7.7 1.7 1.7 0 .9-.7 1.7-1.7 1.7H19.6L6.9 96.7h81.5L75.6 72.5H64.4c-.9 0-1.7-.7-1.7-1.7 0-.9.7-1.7 1.7-1.7h12.2c.6 0 1.2.3 1.5.9l14.5 27.5c.3.5.3 1.1 0 1.6-.3.6-.9.9-1.5.9z"/></g></svg>