<svg version="1.1" id="レイヤー_1" xmlns="http://www.w3.org/2000/svg" x="0" y="0" width="100" height="100" xml:space="preserve"><style>.st0{fill:#d71618}</style><path class="st0" d="M50 2.3c26.3 0 47.7 21.4 47.7 47.7S76.3 97.7 50 97.7 2.3 76.3 2.3 50 23.7 2.3 50 2.3M50 0C22.4 0 0 22.4 0 50s22.4 50 50 50 50-22.4 50-50S77.6 0 50 0z"/><path class="st0" d="M46.9 60.9c.2-1.3.2-1.7.2-3.5 0-2.8.6-4.6 2-6.5 1.1-1.5 1.6-1.9 4.7-4 1.9-1.3 2.9-2.1 3.7-2.9 1.2-1.3 1.9-2.9 1.9-4.5 0-4-3.6-6.8-8.7-6.8-3.5 0-6.2 1.2-8 3.4-.9 1.2-1.3 2.2-1.9 4.4l-4.5-.7c1.1-3.9 2.2-5.7 4.4-7.5 2.5-2.1 6-3.2 10.2-3.2 7.4 0 12.9 4.2 12.9 10 0 2-.4 3.7-1.3 5.2-1 1.6-1.9 2.6-4.9 4.7-3.2 2.2-4.1 3-4.8 4-1 1.3-1.4 2.9-1.4 5 0 .9.1 1.8.2 3h-4.7zm5 5V71h-5.2v-5.1h5.2z"/></svg>