<svg version="1.1" id="レイヤー_1" xmlns="http://www.w3.org/2000/svg" x="0" y="0" width="100" height="160.5" xml:space="preserve"><style>.st0{fill:#2c2f35}</style><path class="st0" d="M85.7 160.5H14.3c-7.9 0-14.3-6.4-14.3-14.3v-132C0 6.4 6.4 0 14.3 0h71.5C93.6 0 100 6.4 100 14.3v132c0 7.8-6.4 14.2-14.3 14.2zM14.3 5.3c-4.9 0-8.9 4-8.9 8.9v132c0 4.9 4 8.9 8.9 8.9h71.5c4.9 0 8.9-4 8.9-8.9v-132c0-4.9-4-8.9-8.9-8.9H14.3z"/><path class="st0" d="M97.3 138.5H2.7c-1.5 0-2.7-1.2-2.7-2.7V21.5c0-1.5 1.2-2.7 2.7-2.7h94.7c1.5 0 2.7 1.2 2.7 2.7v114.3c-.1 1.5-1.3 2.7-2.8 2.7zm-92-5.4h89.4v-109H5.3v109zM51.4 150h-2.9c-1.5 0-2.7-1.2-2.7-2.7s1.2-2.7 2.7-2.7h2.9c1.5 0 2.7 1.2 2.7 2.7s-1.2 2.7-2.7 2.7z"/><g><path class="st0" d="M75 112.7H25c-1.5 0-2.7-1.2-2.7-2.7V70.6c0-1.5 1.2-2.7 2.7-2.7 1.5 0 2.7 1.2 2.7 2.7v36.7h44.7V70.6c0-1.5 1.2-2.7 2.7-2.7 1.5 0 2.7 1.2 2.7 2.7V110c-.1 1.5-1.3 2.7-2.8 2.7z"/><path class="st0" d="M17.5 78.8c-.8 0-1.6-.3-2.1-1-.9-1.1-.7-2.8.4-3.7l32.5-25.7c1-.8 2.3-.8 3.3 0l32.5 25.7c1.1.9 1.3 2.6.4 3.7-.9 1.2-2.6 1.3-3.7.4L50 53.9 19.2 78.3c-.5.4-1.1.5-1.7.5zM79.5 112.7h-59c-1.5 0-2.7-1.2-2.7-2.7 0-1.5 1.2-2.7 2.7-2.7h59c1.5 0 2.7 1.2 2.7 2.7 0 1.5-1.2 2.7-2.7 2.7z"/><path class="st0" d="M55.9 112.7H44.1c-1.5 0-2.7-1.2-2.7-2.7V87.3c0-1.5 1.2-2.7 2.7-2.7h11.7c1.5 0 2.7 1.2 2.7 2.7V110c0 1.5-1.2 2.7-2.6 2.7zm-9.1-5.3h6.4V89.9h-6.4v17.5z"/><g><path class="st0" d="M32 66c-1.5 0-2.7-1.2-2.7-2.7v-9.2c0-1.5 1.2-2.7 2.7-2.7 1.5 0 2.7 1.2 2.7 2.7v9.2c-.1 1.5-1.2 2.7-2.7 2.7z"/></g></g><g><path class="st0" d="M60.5 14.8h-21c-1.5 0-2.7-1.2-2.7-2.7s1.2-2.7 2.7-2.7h21c1.5 0 2.7 1.2 2.7 2.7s-1.2 2.7-2.7 2.7z"/></g></svg>