<svg version="1.1" id="レイヤー_1" xmlns="http://www.w3.org/2000/svg" x="0" y="0" width="100" height="100" xml:space="preserve"><style>.st0{fill:#d71618}</style><path class="st0" d="M70.3 100c-1.3 0-3.3-.2-6.1-.6-2.8-.4-6.2-1.5-10.2-3.1-4-1.6-8.5-4.1-13.5-7.4-5-3.3-10.4-7.8-16-13.5-4.4-4.4-8.2-8.6-11.1-12.7-2.9-4-5.3-7.8-7.1-11.2-1.8-3.4-3.2-6.6-4.1-9.4-.9-2.8-1.5-5.3-1.9-7.3-.3-2.1-.5-3.8-.4-5 .1-1.1.1-1.7.1-1.8v-.2c.1-1 .5-2.1 1-3.2s1.2-2 2-2.7L15.6 9.3c1.2-1.2 2.6-1.8 4.2-1.8 1.2 0 2.2.3 3.1 1 .8.6 1.4 1.3 2 2.2 0 0 0 .1.1.1L35.1 30c.7 1.3 1 2.8.6 4.4-.3 1.5-1 2.8-2 3.8l-4.6 4.6v.2c.2 1.1.7 2.4 1.5 3.9.7 1.4 1.9 3.2 3.4 5.3 1.5 2.1 3.7 4.6 6.5 7.3 2.8 2.8 5.3 5.1 7.4 6.6 2.1 1.6 3.9 2.7 5.3 3.4 1.7.9 2.5 1.1 3 1.2l.9.2h.2l5.3-5.4.1-.1c1.4-1.3 3.1-1.9 5-1.9 1.2 0 2.3.2 3.1.6.1 0 .3.1.4.1L89.4 75c1.7 1.1 2.8 2.5 3.1 4.2v.1c.3 1.9-.4 3.7-1.8 5.1L78.1 97c-.6.7-1.6 1.4-2.7 1.9s-2.1.8-3.2 1H72h-.4c-.3.1-.8.1-1.3.1zm-67-71.9c0 .3 0 .9-.1 1.8-.1 1 .1 2.5.4 4.3.3 1.9.9 4.2 1.7 6.9.9 2.6 2.2 5.7 3.9 8.9 1.7 3.3 4 6.9 6.9 10.8 2.8 3.9 6.5 8 10.8 12.3 5.5 5.5 10.7 9.9 15.4 13 4.8 3.1 9.2 5.5 12.9 7.1 3.7 1.6 6.9 2.5 9.5 2.9 2.6.4 4.5.6 5.6.6h1.6c.7-.1 1.4-.3 2.2-.7.7-.3 1.3-.8 1.7-1.2l12.6-12.6c.7-.7 1-1.5.9-2.4-.2-.8-.7-1.5-1.6-2l-18-10.6c-.1 0-.2-.1-.3-.1-.3-.2-.8-.3-1.7-.3-1.1 0-2 .4-2.9 1.1l-5.3 5.4c-.3.3-.7.5-1.2.7-.6.2-1 .3-1.4.2l-1.2-.2c-.9-.2-2.2-.7-3.8-1.5-1.6-.8-3.4-2-5.7-3.7-2.3-1.7-4.9-4-7.8-6.9-2.9-2.9-5.2-5.4-6.9-7.7-1.6-2.2-2.8-4.2-3.6-5.8-.9-1.8-1.6-3.5-1.8-5v-.3c0-.4.1-.8.2-1.2.2-.5.4-.9.7-1.2l4.6-4.6c.6-.6 1-1.3 1.2-2.2.2-.8.1-1.5-.3-2.2L22.2 12.4c-.3-.5-.7-.9-1.2-1.3-.4-.3-.7-.4-1.2-.4-.7 0-1.3.3-1.9.9L5.3 24.1c-.5.5-.9 1.1-1.3 1.8-.3.7-.6 1.5-.7 2.2zm53.9 42.7zM29.1 42.7z" id="XMLID_00000115483348138258776470000003349841445331450766_"/><path class="st0" d="M69.4 46.1c-.9 0-1.6-.7-1.6-1.6 0-6.8-5.5-12.3-12.3-12.3-.9 0-1.6-.7-1.6-1.6 0-.9.7-1.6 1.6-1.6C64 29 71 36 71 44.5c0 .9-.7 1.6-1.6 1.6zM84.1 46.1c-.9 0-1.6-.7-1.6-1.6 0-14.9-12.1-27-27-27-.9 0-1.6-.7-1.6-1.6 0-.9.7-1.6 1.6-1.6 16.6 0 30.2 13.5 30.2 30.2 0 .9-.7 1.6-1.6 1.6z"/><path class="st0" d="M98.4 46.1c-.9 0-1.6-.7-1.6-1.6 0-22.8-18.5-41.3-41.3-41.3-.9 0-1.6-.7-1.6-1.6 0-.9.7-1.6 1.6-1.6C80 0 100 20 100 44.5c0 .9-.7 1.6-1.6 1.6z"/></svg>