<svg version="1.1" id="レイヤー_1" xmlns="http://www.w3.org/2000/svg" x="0" y="0" width="100" height="100" xml:space="preserve"><style>.st0{fill:#fff}</style><path class="st0" d="M98.3 83.5H1.7c-.9 0-1.7-.8-1.7-1.7V18.2c0-.9.8-1.7 1.7-1.7h96.6c.9 0 1.7.8 1.7 1.7v63.6c0 .9-.8 1.7-1.7 1.7zM3.4 80.1h93.3V19.9H3.4v60.2z"/><path class="st0" d="M50 63.9c-.4 0-.8-.1-1.1-.4L.6 19.5C0 19-.1 18.2.1 17.6c.3-.6.9-1.1 1.6-1.1h96.6c.7 0 1.3.4 1.6 1.1.3.6.1 1.4-.4 1.8l-48.3 44c-.4.4-.8.5-1.2.5zm-44-44L50 60l44-40.1H6z"/><path class="st0" d="M98.3 83.5H1.7C1 83.5.3 83 .1 82.4c-.2-.7 0-1.4.6-1.9L39 51.7c.7-.6 1.8-.4 2.4.3.6.7.4 1.8-.3 2.4L6.7 80.1h86.6L59.5 54.8c-.7-.6-.9-1.6-.3-2.4.6-.7 1.6-.9 2.4-.3l37.9 28.4c.6.4.8 1.2.6 1.9-.4.6-1.1 1.1-1.8 1.1z"/></svg>