<svg version="1.1" id="レイヤー_1" xmlns="http://www.w3.org/2000/svg" x="0" y="0" width="100" height="100" xml:space="preserve"><style>.st0{fill:#fff}</style><path class="st0" d="M47.6 77.6C32.4 77.6 20 65.2 20 50s12.4-27.6 27.6-27.6S75.3 34.8 75.3 50 62.9 77.6 47.6 77.6zm0-52c-13.5 0-24.4 11-24.4 24.4 0 13.5 11 24.4 24.4 24.4C61.1 74.4 72 63.4 72 50c.1-13.5-10.9-24.4-24.4-24.4zM47.6 16c-.9 0-1.6-.7-1.6-1.6V1.6c0-.9.7-1.6 1.6-1.6s1.6.7 1.6 1.6v12.8c0 .9-.7 1.6-1.6 1.6zM26.7 22.8c-.5 0-1-.2-1.3-.7l-7.5-10.3c-.5-.7-.4-1.7.4-2.2.7-.6 1.7-.4 2.2.3L28 20.3c.5.7.4 1.7-.4 2.2-.2.2-.6.3-.9.3zM13.8 40.6c-.2 0-.3 0-.5-.1l-12.2-4c-.8-.3-1.3-1.2-1-2 .3-.8 1.2-1.3 2-1l12.2 4c.8.3 1.3 1.2 1 2-.2.7-.9 1.1-1.5 1.1zM1.6 66.6c-.7 0-1.3-.4-1.5-1.1-.3-.8.2-1.7 1-2l12.2-4c.8-.3 1.7.2 2 1 .3.8-.2 1.7-1 2l-12.2 4c-.2 0-.3.1-.5.1zM19.2 90.8c-.3 0-.7-.1-.9-.3-.7-.5-.9-1.5-.4-2.2L25.4 78c.5-.7 1.5-.9 2.2-.4.7.5.9 1.5.4 2.2l-7.5 10.3c-.3.4-.8.7-1.3.7zM47.6 100c-.9 0-1.6-.7-1.6-1.6V85.6c0-.9.7-1.6 1.6-1.6s1.6.7 1.6 1.6v12.8c0 .9-.7 1.6-1.6 1.6zM76.1 90.8c-.5 0-1-.2-1.3-.7l-7.5-10.3c-.5-.7-.4-1.7.4-2.2.7-.5 1.7-.4 2.2.4l7.5 10.3c.5.7.4 1.7-.4 2.2-.3.2-.6.3-.9.3zM93.7 66.6c-.2 0-.3 0-.5-.1l-12.2-4c-.8-.3-1.3-1.2-1-2 .3-.8 1.2-1.3 2-1l12.2 4c.8.3 1.3 1.2 1 2-.2.6-.9 1.1-1.5 1.1zM81.5 40.6c-.7 0-1.3-.4-1.5-1.1-.3-.8.2-1.7 1-2l12.2-4c.8-.3 1.7.2 2 1 .3.8-.2 1.7-1 2l-12.2 4c-.2.1-.3.1-.5.1zM68.6 22.8c-.3 0-.7-.1-.9-.3-.7-.5-.9-1.5-.4-2.2L74.8 10c.5-.8 1.5-1 2.2-.5.7.5.9 1.5.4 2.2L69.9 22c-.4.6-.8.8-1.3.8z"/></svg>