<svg version="1.1" id="レイヤー_1" xmlns="http://www.w3.org/2000/svg" x="0" y="0" width="100" height="107.9" xml:space="preserve"><style>.st1{fill:#231815}</style><path d="M88.8 63.1L79.6 97s-6.9-1.8-9.5-2.4c-2.7-.6-5.5-1.4-9-1.2-.9.1-1.8.3-2.7.5-15 3.1-29.2 3-35.7-2.1-3.3.4-6.9.6-9.2.2-3.2-.6-5.2-3.2-5-6.7.1-1.3.4-3.3 1.1-4.2-3.5-.7-5.4-3-5.8-6-.2-1.8.7-4.7 1.8-5.8-3.1-1.4-3.8-3.4-3.9-7-.1-2.8 2.1-6.4 4.9-6.7-2.4-1.7-2.4-3.6-2.4-4.8 0-2.4 1.1-4.3 1.1-4.3 2.3-4.2 9-4.7 9-4.7 5-.6 16.3-.7 26.4-.1 2.9.2 3.9-1.5 3.9-3.5.1-4.8-2.3-11.2-4.7-17C34 7.7 39.8 1.8 44.1 1.6c4-.2 4.8 6.8 5.1 8.1 2.1 8.3 5.7 14.6 5.7 14.6 4.7 9 7.3 11.3 12.2 18.7 4 6.1 5.2 10 8.2 14 3.1 4.1 6.3 4.5 8 5l5.5 1.1z" fill="#fff"/><path class="st1" d="M79.6 98.6c-.1 0-.3 0-.4-.1-.1 0-6.9-1.8-9.4-2.4-.5-.1-1-.2-1.4-.3-2.2-.5-4.4-1-7.2-.8-.5 0-1.1.2-1.7.3-.3.1-.5.1-.8.2-17.1 3.5-30.6 2.6-37-2.4-.7-.5-.8-1.5-.3-2.2.5-.7 1.5-.8 2.2-.3 5.6 4.4 18.5 5 34.4 1.8.2 0 .5-.1.7-.2.7-.2 1.4-.3 2.2-.4 3.2-.2 5.8.4 8.1.9.5.1.9.2 1.4.3 2.6.6 9.3 2.3 9.6 2.4.9.2 1.4 1.1 1.1 2-.1.8-.8 1.2-1.5 1.2zM88.8 64.7h-.3l-5.6-1.2h-.1c-.2 0-.3-.1-.5-.1-1.9-.5-5.2-1.3-8.3-5.4-1.6-2.1-2.7-4.2-4-6.7-1.1-2.1-2.4-4.6-4.3-7.4-1.6-2.5-3-4.3-4.3-6.2-2.6-3.5-4.8-6.6-7.9-12.6-.3-.5-3.8-6.8-5.8-15 0-.2-.1-.4-.2-.7-.3-1.5-1.2-6.2-3.3-6.1-1.1 0-2.7.7-3.9 2.6-1.2 1.9-2.7 6.4 1 14.9 2.3 5.4 4.9 12.3 4.9 17.7 0 1.7-.5 3-1.5 3.9-1 .9-2.4 1.3-4.1 1.2-10.1-.6-21.2-.4-26.1.1h-.1c-1.6.1-6.2 1.1-7.7 3.8 0 0-.9 1.7-.9 3.6 0 1 0 2.3 1.7 3.5 1.8 1.3 6 2.7 15.7 2.7 8.9 0 8.9-1.6 8.9-3.3 0-2.4-.8-2.8-7.6-4l-.7-.1c-6.8-1.2-9.9-1.7-9.9-1.7-.9-.1-1.5-1-1.3-1.8.1-.9 1-1.5 1.8-1.3 0 0 3.2.5 10 1.7l.7.1c6.2 1.1 10.3 1.8 10.3 7.2 0 6-5.7 6.5-12.1 6.5-18.3 0-20.6-5-20.6-9.4 0-2.7 1.3-5 1.3-5.1 2.6-4.7 9.6-5.4 10.3-5.5 5.1-.6 16.4-.8 26.6-.1.6 0 1.3 0 1.7-.3.4-.4.5-1.1.5-1.6.1-4.8-2.4-11.3-4.6-16.4-2-4.6-4.5-12.5-.9-18.1 1.5-2.4 3.9-3.9 6.4-4h.2c4.7 0 5.9 6.3 6.4 8.7 0 .2.1.4.1.6 2 7.9 5.5 14.1 5.5 14.2v.1c3 5.8 5.2 8.8 7.7 12.2 1.3 1.8 2.7 3.7 4.4 6.3 2 3 3.3 5.5 4.4 7.7 1.3 2.1 2.3 4.1 3.8 6 2.5 3.3 4.8 3.9 6.6 4.3.2 0 .4.1.5.1l5.5 1.2c.9.2 1.4 1 1.2 1.9-.1.8-.8 1.3-1.5 1.3z"/><path class="st1" d="M16.7 93.9c-1.3 0-2.6-.1-3.6-.3-4-.7-6.6-4.1-6.3-8.3 0-.2.1-1.7.5-3.1-3-1.2-4.8-3.6-5.2-6.8-.2-1.5.2-3.7 1.1-5.4C.8 68.3.1 65.8 0 62.5c-.1-3.5 2.6-7.9 6.3-8.4.8-.1 1.6.5 1.7 1.4.1.9-.5 1.7-1.4 1.8-1.7.2-3.5 2.9-3.4 5.1.1 3.4.8 4.6 3 5.6.5.2.9.7.9 1.2.1.5-.1 1.1-.5 1.4-.7.6-1.4 2.9-1.3 4.4.3 2.4 1.8 4 4.5 4.6.5.1 1 .5 1.2 1 .2.5.1 1.1-.2 1.5-.3.5-.7 2.1-.8 3.4-.2 2.6 1.3 4.6 3.7 5 3.7.7 11.5-.4 15.6-1.4 2.1-.5 3.4-1.8 3.5-3.6.1-2.2-.5-3.2-1.6-4-.4-.3-.6-.7-.6-1.2s.2-.9.5-1.2c.9-.9 1.5-1.4 1.5-3.1 0-3-1.2-4.2-2.4-4.9-.5-.3-.7-.7-.8-1.3 0-.5.2-1 .6-1.4.2-.2.4-.3.6-.5.9-.7 1.5-1.1 1.7-2.9.1-.9.1-3.8-2.4-5.2-.8-.4-1.1-1.4-.6-2.2.4-.8 1.4-1.1 2.2-.6 2.8 1.5 4.4 4.7 4.1 8.3-.2 2.3-1 3.5-1.9 4.4 1.5 1.5 2.2 3.6 2.2 6.3 0 2-.6 3.2-1.3 4.1 1.2 1.4 1.7 3.2 1.6 5.6-.2 3.2-2.4 5.6-5.9 6.5-2.5.5-8.6 1.7-13.6 1.7z"/><path class="st1" d="M18.1 72.8c-8.3 0-13.2-1.8-13.5-1.9-.8-.3-1.2-1.2-.9-2.1.3-.9 1.3-1.3 2.1-1 .1 0 9.6 3.6 24.8.4.9-.2 1.7.4 1.9 1.2.2.9-.4 1.7-1.2 1.9-5.1 1.1-9.5 1.5-13.2 1.5zM17.5 83.3c-5.2 0-8.2-.6-8.4-.6-.9-.2-1.4-1-1.3-1.9.2-.9 1-1.4 1.9-1.3.1 0 9 1.7 22.6-.9.9-.2 1.7.4 1.9 1.3.2.9-.4 1.7-1.3 1.9-6.2 1.2-11.4 1.5-15.4 1.5z"/><g><path class="st1" d="M100 61.9l-13.7 46-13.8-4.1c-3-.9-4.7-4-3.8-7l10.5-35.2c.4-1.4 1.4-2.6 2.7-3.4 1.3-.7 2.9-.9 4.3-.4l13.8 4.1z"/></g></svg>