<svg version="1.1" id="レイヤー_1" xmlns="http://www.w3.org/2000/svg" x="0" y="0" width="100" height="96.4" xml:space="preserve"><style>.st0{fill:#4d4d4d}</style><path class="st0" d="M49.7 96.4c2.3 0 4.5-.4 6.6-1.3 5.3-2.2 12.2-8.4 15-25.1.3-1.6-.8-3.2-2.5-3.5-1.7-.3-3.2.8-3.5 2.5-1.7 11.1-5.7 18.2-11.3 20.5-4.1 1.7-9.2.8-14-2.6-4.5-3.2-6.1-8.5-4.9-15.7l1.4-2.5c.7-1.2.5-2.7-.5-3.6-1-1-2.4-1.2-3.6-.5-5.6 3.1-11.8 3.9-17.2 2.1-3.7-1.2-6.4-3.5-7.7-6.3-3.6-8.4-1-15.6 8.4-22.6 1.2-.9 1.6-2.7.8-4-.6-1-1.8-1.5-2.9-1.4-5.7-3.4-7.4-9-5.2-16.8 1.1-4 4.1-7.1 8.1-8.6 5.5-2 12.3-.6 19 3.9 1.4.9 3.2.6 4.2-.8.9-1.4.6-3.2-.8-4.2-8.4-5.6-17-7.3-24.4-4.5-6 2-10.3 6.6-12 12.5-2.7 9.5-.6 17.3 5.8 22.2C-2.1 46-.9 55.9 2.2 62.8c2 4.4 6 7.8 11.3 9.6 4.9 1.6 10.2 1.6 15.4.2-.6 6.5.5 14.2 7.7 19.3 4.2 2.9 8.8 4.5 13.1 4.5z"/><path class="st0" d="M53.9 38.6c-1.7 0-3-1.3-3-3s1.3-3 3-3c22.4 0 38.8-19.7 40.1-24-.2-1.2.4-2.5 1.5-3.1 1.4-.8 3.3-.3 4.1 1.1.9 1.6.5 3.6-1.2 6.6-3.9 6.6-20.4 25.4-44.5 25.4zM94.3 9.5z"/></svg>