<svg version="1.1" id="レイヤー_1" xmlns="http://www.w3.org/2000/svg" x="0" y="0" width="100" height="150.6" xml:space="preserve"><style>.st0{fill:#4d4d4d}</style><path class="st0" d="M95.8 150.6s.1 0 0 0c2.4-.1 4.2-2 4.2-4.3l-3.1-141C96.8 3 95 1.1 92.6 1.2c-2.3.1-4.2 2-4.1 4.3l3.1 141c.1 2.3 1.9 4.1 4.2 4.1zM51.4 149.5c2.4-.1 4.2-2 4.2-4.3l-3.1-141c-.1-2.3-2-4.2-4.3-4.1C45.8.1 44 2 44 4.3l3.1 141c.1 2.4 2 4.2 4.3 4.2zM7.3 149.4s.1 0 0 0c2.4-.1 4.2-2 4.2-4.3L8.4 4.1C8.3 1.8 6.4-.1 4.1 0 1.8.1 0 2 0 4.3l3.1 141c.1 2.3 1.9 4.1 4.2 4.1z"/></svg>