<svg xmlns="http://www.w3.org/2000/svg" width="100" height="113"><path d="M59.6 4.3C71.5 12.7 81 24.1 87.3 37.2c3.1 6.4 5.4 13.2 6.8 20.2.7 3.6 1.2 7.2 1.4 10.8.1 1.4.3 3.2-.5 4.5-1.1 1.9-3.7.7-5.3.1C62 63 37.7 43.7 21.5 19.4c-1.8-2.7-3.7-5.4-4.5-8.5-.6-2.5-.7-6 2.8-5.8 3.2.2 6.8 2 9.7 3.3 3 1.4 6 3 8.8 4.9 11.3 7.5 20.2 18.7 25 31.3 2.4 6.2 3.8 12.7 4.1 19.4.1 2.2.6 8.2-3 7.9-1.9-.2-4-1.3-5.8-2-2.3-1-4.6-1.9-6.8-2.9-6.9-3-14.2-6-20.1-10.8-2.5-2.1-4.9-4.5-6.3-7.4-1.1-2.3-2.5-7.8.3-9.5 2.6-1.6 7.3.7 9.7 1.9 3.2 1.6 6 3.6 8.6 5.9 5.2 4.8 9.3 10.7 12.6 16.9 3.1 5.8 8.8 15.6 3.7 21.8-4.3 5.3-12.5 3.8-16.4-1-2.3-2.7-3.4-6.2-3.6-9.7-1.3.5-2.6 1.1-3.8 1.6 3.6 3.6 2.2 9.6-1.1 12.9-4.6 4.7-12.1 2.9-16.7-.8-1.2-.9-2.3-2-3.2-3.2-.5-.6-1-1.4-1.4-2.1-.6-1.1-.6-1.2.4-1.4 2.7-.5 6.4 2.8 8.1 4.5 4.6 4.4 6.8 11.6 2.1 16.8-2.1 2.3-5.2 3.2-8 1.4-2.5-1.6-4.1-4.8-2.5-7.5-1.4-.6-2.7-1.2-4.1-1.7-1.2 5.5-4.3 10.2-9 13.2-2.4 1.6-.2 5.5 2.3 3.9 5.6-3.7 9.6-9.4 11-16 .5-2.5-2.7-4-4.1-1.7-5 8 4.7 17.6 12.9 14.6 4.2-1.6 7.2-5.6 8.2-9.9 1.1-4.8-.3-9.6-3.2-13.5-2.7-3.6-7.1-7.4-11.7-8.4-4.5-.9-8.8 2.2-6.7 7 3.7 8.6 15.4 14.7 24.4 11 8.3-3.4 12.4-15.6 5.6-22.3-1.3-1.3-4-.4-3.8 1.6.5 7.8 4.9 16 13 18.1 7.4 1.9 15.9-2 17.6-9.8 1.9-8.7-3.7-18.2-8-25.4-4.3-7.2-9.8-13.8-16.9-18.5-5.2-3.4-17-9.2-20.9-1.1-3.5 7.3 1.7 15.6 7.1 20.3 6.9 6 15.7 9.6 24.1 13.1 2.2 1 4.5 1.9 6.8 2.8 2.3.9 4.9 2.2 7.4 1.7 3.7-.7 5.3-4.4 5.7-7.8.9-7.8-1.1-16.5-3.7-23.8-2.7-7.6-6.7-14.6-11.7-20.8-5-6.3-11.1-11.7-18-15.8-3.4-2.1-7-3.8-10.8-5.2-3.7-1.6-8.4-3.6-12-1.4-6.7 3.8-2.5 13.3.5 18 4.7 7.4 10.2 14.3 16.1 20.7 12 12.8 26.5 23.5 42.3 31.2 3.9 1.9 7.9 3.6 12 5.2 3.6 1.4 8.2 3 11.3-.4 2.7-2.9 2-7.6 1.7-11.2-.4-4.3-1.1-8.5-2.2-12.6-4.1-16.7-13.1-32.2-25.6-43.9-3.1-2.9-6.5-5.6-10-8.1-2.4-1.7-4.6 2.2-2.2 3.9z" fill="#4d4d4d"/></svg>