<svg version="1.1" id="レイヤー_1" xmlns="http://www.w3.org/2000/svg" x="0" y="0" width="100" height="88.2" xml:space="preserve"><style>.st0{fill:#4d4d4d}</style><path class="st0" d="M51.3 20c-1.2 6.7-4.7 10.6-10.3 12.9-12.4 4.9-25.2 9-36.9 15.8-1.1.6-2.5.7-4.1-.6 1.3-16.5 9.6-30 20.9-41.4C32.6-5.2 47-.7 51.1 15.4c.3 1.3.2 2.6.2 4.6zm-23 11.4c3.6-1.5 7.3-2.8 10.8-4.5 5.9-3 7.7-8.2 5-13.7-3-6.3-8.2-8.1-14.7-5.3-2.5 1.1-4.7 2.4-6.3 4.5-6.3 8.3-12.3 16.8-15.4 27.1 6.6-2.6 12.9-5.1 20.6-8.1zM100 77.3c-5.1 8.2-12.4 11.2-21 10.8-7.4-.4-14.9-.7-21.7-4.4-5-2.7-10.6-2.8-16.7-2.4-.2-4-2.7-8.3 4.4-8.3 2.7 0 4.3-2.7 6.5-4.1 9.3-6.1 18.7-11.7 30.6-11.2 12.4.6 17.8 6 17.9 19.6zM70.3 81c5.1 1.5 10.3 1.5 15.5.5 4.3-.9 8.5-5.5 8.4-8.5-.1-3.3-4.2-7.5-8.4-8.6-.3-.1-.6-.1-1-.1-12.1-1.5-21.8 3-31.3 11.6 3.3 1.2 5 2 6.9 2.5 2.8.9 5.6 1.6 9.9 2.6z"/></svg>