<svg version="1.1" id="レイヤー_1" xmlns="http://www.w3.org/2000/svg" x="0" y="0" width="200" height="200" xml:space="preserve"><style>.st0{fill:#ff474d}</style><path class="st0" d="M157.1 70.8h.3V28.4h-18.6v24.1L100 13.7 7.6 106.2h20.5L100 34.3l71.9 71.9h20.5z"/><path class="st0" d="M143.5 169.2c.4-.5.9-1 1.3-1.5.2-.2.3-.4.5-.6.4-.5.8-1.1 1.2-1.6.1-.2.3-.4.4-.6.4-.6.7-1.1 1-1.7l.3-.6.9-1.8.3-.6c.3-.7.6-1.3.8-2 .1-.2.1-.3.2-.5.3-.7.5-1.4.7-2.1 0-.1 0-.2.1-.3 1.5-5 2.3-10.3 2.4-15.5v-.5-2-.8c0-.6 0-1.2-.1-1.8v-.9c0-.6-.1-1.1-.1-1.7 0-.3 0-.7-.1-1 0-.5-.1-1-.1-1.5 0-.4-.1-.7-.1-1.1-.1-.5-.1-.9-.2-1.4-.1-.4-.1-.7-.2-1.1-.1-.4-.1-.9-.2-1.3s-.1-.7-.2-1.1c-.1-.4-.2-.8-.2-1.2-.1-.4-.2-.7-.2-1.1-.1-.4-.2-.7-.2-1.1-.1-.4-.2-.7-.3-1.1-.1-.3-.2-.7-.3-1-.1-.4-.2-.7-.3-1l-.3-.9c-.1-.3-.2-.7-.3-1-.1-.2-.2-.5-.3-.7-.1-.3-.2-.6-.4-.9-.1-.2-.2-.4-.2-.6-.1-.3-.3-.6-.4-.9-.1-.1-.1-.3-.2-.4-.2-.4-.4-.8-.6-1.1 0 0-.1.1-.2.3-.1.1-.2.2-.3.4l-.1.1c-.2.2-.4.5-.6.7l-.1.1c-.2.3-.5.6-.8 1l-.1.1c-.3.4-.7.8-1 1.2 0 0 0 .1-.1.1-.4.4-.8.9-1.2 1.4l-.1.1c-.4.5-.9 1-1.4 1.5l-.1.1c-.5.5-1 1-1.6 1.5l-.1.1c-.5.5-1.1 1-1.7 1.5l-.1.1-1.8 1.5-.1.1c-.6.5-1.2.9-1.9 1.4l-.1.1c-.6.4-1.3.8-2 1.2-.1 0-.1.1-.2.1-.7.4-1.3.7-2 1-.1 0-.1.1-.2.1-.7.3-1.4.6-2.1.8-.1 0-.1 0-.2.1-.7.2-1.4.4-2.1.5h-.2c-.7.1-1.4.2-2.1.2h-1.3c-.3 0-.5-.1-.8-.1h-.2c-.6-.1-1.1-.3-1.6-.5-2.9-1.3-3.5-4.3-3-7.7.7-4.6 3.3-9.9 4.5-12.3.4-.7.7-1.7 1.1-2.9 0-.1.1-.3.1-.4.2-.7.3-1.4.4-2.1.9-5.2.8-12.7-2.9-19.6 0-.1-.1-.1-.1-.2-.7-1.4-1.6-2.8-2.7-4.1-1.5-1.9-3.3-3.6-5.4-5.3.2.6.5 1.1.6 1.7.1.2.1.4.2.5.1.4.2.7.3 1.1 0 .2.1.4.1.6.1.3.1.6.2.9v2.8c0 .2-.1.4-.1.6 0 .2-.1.5-.1.7 0 .2-.1.4-.2.6-.1.2-.1.5-.2.7-.1.2-.2.4-.2.6-.1.2-.2.5-.3.7l-.3.6c-.1.2-.2.5-.4.7-.1.2-.2.4-.4.6-.1.2-.3.4-.4.7-.1.2-.3.4-.4.6-.2.2-.3.4-.5.7-.1.2-.3.4-.5.6-.2.2-.4.4-.5.6-.2.2-.3.4-.5.6-.2.2-.4.4-.6.7-.2.2-.4.4-.5.6l-.7.7-.6.6c-.2.2-.5.4-.7.7-.2.2-.4.4-.6.5-.3.2-.5.5-.8.7-.2.2-.4.4-.6.5-.3.3-.6.5-.9.8-.2.2-.4.3-.6.5-1 .9-2 1.7-3 2.6-.2.2-.4.3-.6.5-.3.3-.6.6-1 .9-.2.2-.4.4-.7.6-.3.3-.6.5-.9.8-.2.2-.5.4-.7.6-.3.3-.6.5-.9.8l-.7.7c-.3.3-.6.6-.9.8l-.7.7-.8.8-.8.8c-.3.3-.5.6-.8.9-.3.3-.5.6-.8.9-.3.3-.5.6-.8.9-.3.3-.5.6-.8.9-.3.3-.5.6-.8.9-.3.3-.5.7-.8 1-.2.3-.5.6-.7.9-.3.3-.5.7-.8 1.1-.2.3-.5.6-.7 1-.3.4-.5.8-.8 1.2l-.6.9c-.4.6-.7 1.2-1.1 1.9l-1.5 2.7c-.5 1-1 2.1-1.4 3.1-.1.3-.3.6-.4 1l-.9 2.4c-.1.3-.2.6-.3 1l-.9 3.3v.1c-.2 1.1-.4 2.2-.6 3.2-.1.3-.1.7-.1 1-.1.8-.2 1.6-.2 2.4 0 .3-.1.7-.1 1-.1 1.1-.1 2.2-.1 3.3v.2c0 1 .1 2.1.2 3.1 0 .3.1.7.1 1 .1.8.2 1.5.4 2.3.1.3.1.7.2 1 .2 1 .5 2.1.8 3.1 0 .1 0 .1.1.2.3 1 .6 1.9 1 2.8.1.3.3.6.4.9.3.7.6 1.4 1 2.1.2.3.3.6.5.9.5.9 1 1.8 1.6 2.7 2.7 4 6.2 7.4 10.6 10.1-7.8-10-5.3-27 8.8-41.1-.9 11.8-1.4 23.7 6 27.5 3.4 1.7 8.9 1.2 14-.9.2-.1.5-.2.7-.3.4-.2.8-.3 1.2-.5.3-.1.6-.3.9-.5.4-.2.7-.4 1-.6.3-.2.7-.4 1-.6.2-.2.5-.3.7-.5.4-.3.8-.5 1.1-.8.2-.1.3-.2.5-.4.4-.4.8-.7 1.2-1.1l.3-.3c.4-.4.7-.8 1.1-1.2.1-.1.1-.2.2-.3.3-.4.6-.9.9-1.4 0-.1.1-.2.1-.2.3-.5.5-1 .6-1.5v-.2c.2-.5.3-1.1.3-1.6v.1c.1.6.2 1.3.3 2 0 .3.1.5.1.8.1.4.1.9.2 1.3 0 .3.1.7.1 1 0 .4.1.8.1 1.2 0 .4.1.7.1 1.1 0 .4.1.7.1 1.1v4.4c0 .4 0 .8-.1 1.2 0 .3-.1.6-.1 1s-.1.8-.2 1.2c0 .3-.1.6-.2.9-.1.4-.2.8-.2 1.2-.1.3-.1.6-.2.9l-.3 1.2c-.1.3-.2.5-.3.8-.1.4-.3.8-.5 1.2-.1.3-.2.5-.3.7l-.6 1.2c-.1.2-.3.4-.4.7-.2.4-.5.8-.7 1.1-.1.2-.3.3-.4.5-.3.4-.6.8-.9 1.1l-.1.1c-.9.9-1.9 1.8-3.1 2.6-.7.5-1.5.9-2.4 1.4 2.4-.3 4.7-.7 6.8-1.3.9-.2 1.7-.5 2.6-.8.2-.1.4-.1.5-.2.8-.3 1.5-.6 2.2-.9.2-.1.4-.2.7-.3.7-.3 1.3-.7 1.9-1.1.2-.1.5-.3.7-.4.6-.4 1.2-.8 1.7-1.2.2-.2.4-.3.6-.5.5-.4 1.1-.8 1.6-1.3.2-.2.4-.3.6-.5.5-.5 1-.9 1.4-1.4.6-.3.8-.5 1-.7z"/><path class="st0" d="M33 111v67.3h47.3v-3.2c-14.3-13.4-17.9-36.2-7.7-56.4 6.3-12.5 15.4-20.5 22.7-26.9 10.5-9.1 11.8-11.4 9.7-16.3-1.3-3-.4-6.6 2.1-8.6 1.3-1.1 2.9-1.6 4.5-1.6 1.5 0 3.1.5 4.3 1.4 17.3 12.9 16.1 34.8 11.6 43.7-2.8 5.6-3.6 8.7-3.8 10.2 5.7-.4 14.1-8.6 18.3-14.4 1.4-1.9 3.6-3 5.9-3h.2c2.4.1 4.6 1.3 5.9 3.4 5.6 8.9 11.1 37.3 1.2 57.8-2.7 5.6-6.4 10.3-11 13.9H167V111l-67-67-67 67z"/><path class="st0" d="M124.6 165.4c-1.6.8-3.3 1.4-4.9 1.9v5c1.9-1.2 3.9-3.1 4.9-6.9z"/></svg>