<svg xmlns="http://www.w3.org/2000/svg" width="100" height="100"><path d="M88.4 85.6V21.4H77v6c0 3.3-2.7 6-6 6s-6-2.7-6-6v-6H35v6c0 3.3-2.7 6-6 6s-6-2.7-6-6v-6H11.6V88h76.8v-2.4zM16.4 41h67.2v42.2H16.4V41z"/><path d="M22.7 46.4h8.8v8.8h-8.8zM38 46.4h8.8v8.8H38zM53.2 46.4H62v8.8h-8.8zM68.5 46.4h8.8v8.8h-8.8zM22.7 60.8h8.8v8.8h-8.8zM38 60.8h8.8v8.8H38zM53.2 60.8H62v8.8h-8.8zM68.5 60.8h8.8v8.8h-8.8zM25.4 15.6v11.9c0 2 1.6 3.6 3.6 3.6s3.6-1.6 3.6-3.6V15.6c0-2-1.6-3.6-3.6-3.6s-3.6 1.6-3.6 3.6zM67.4 27.5c0 2 1.6 3.6 3.6 3.6s3.6-1.6 3.6-3.6V15.6c0-2-1.6-3.6-3.6-3.6s-3.6 1.6-3.6 3.6v11.9z"/></svg>