<svg version="1.1" id="レイヤー_1" xmlns="http://www.w3.org/2000/svg" x="0" y="0" width="200" height="200" xml:space="preserve"><style>.st0{fill:#29a2d9}</style><path class="st0" d="M171.9 106.8h20.6l-35.4-35.4h.4V29h-18.7v24.2L100 14.4 7.6 106.8h20.5L100 34.9zM131.8 156.7c-4.7 0-8.9-1.7-12.1-4.9V168c6.6-2.4 13.4-6.2 18.5-12.4 4-4.9 5.3-9.4 3.8-12.6-1.1-2.4-3.6-3.7-5-3.8-1.5 2.3-.4 4.4.4 5.5 1.9 2.1 2.3 5.1 1.1 7.7-1.1 2.7-3.8 4.3-6.7 4.3z"/><path class="st0" d="M143.8 98.9c.1 0 .1 0 0 0 4.2 0 8.2.5 12 1.5L100 44.6l-67 67V179h47.3v-58.8h35c7.1-20.7 28.3-21.3 28.5-21.3z"/><path class="st0" d="M167 113.9c-.7-.5-1.4-1.1-2.2-1.5-.1-.1-.2-.2-.3-.2-.7-.5-1.5-.9-2.2-1.4-.1-.1-.2-.1-.4-.2-.7-.4-1.5-.8-2.3-1.1-.1 0-.1 0-.2-.1-.8-.4-1.6-.7-2.5-1-.2-.1-.3-.1-.5-.2-.8-.3-1.7-.6-2.6-.8-.1 0-.2-.1-.4-.1-.8-.2-1.7-.4-2.5-.5-.2 0-.3-.1-.5-.1-.9-.1-1.9-.3-2.8-.3h-.6c-1-.1-2-.1-3.1-.1 0 0-15.4.2-21.3 15.4-.1.3-.2.5-.3.8-1.2 3.5-2 7.7-2 12.8 0 0 .2 4.5 2.3 8.4 1.6 3.1 4.4 5.8 9.3 5.8 0 0-5.5-6.5-1.3-13.6.2-.3.5-.7.7-1 .1-.2.3-.4.4-.6l.9-.9.2-.2c.3-.2.7-.4 1.1-.6.1 0 .1 0 .2-.1.4-.1.7-.2 1.1-.3.1 0 .2 0 .2-.1.4-.1.9-.1 1.3-.1h.8c.3 0 .6.1.9.1h.2c.2 0 .5.1.7.2.1 0 .2.1.3.1.2.1.4.1.7.2.1 0 .2.1.3.1.2.1.5.2.7.3.1 0 .2.1.2.1.3.1.6.3.9.5.1 0 .1.1.2.1.3.1.5.3.7.5.1.1.2.1.3.2.2.1.4.3.6.4.1.1.2.2.3.2.2.2.4.3.6.5l.2.2.8.8.1.1c.2.2.4.5.6.7.1.1.1.2.2.3.2.2.3.4.4.7.1.1.1.2.2.3.1.2.3.5.4.7.1.1.1.2.2.3.2.4.3.7.5 1.1v.1c.1.3.2.7.3 1 0 .1.1.3.1.4.1.3.1.6.2.9 0 .1.1.3.1.4 0 .3.1.6.1.9V146.2c0 .4-.1.8-.1 1.3 0 .1 0 .3-.1.5 0 .3-.1.7-.2 1 0 .2-.1.3-.1.5-.1.4-.2.7-.3 1.1 0 .2-.1.3-.1.5-.2.5-.4 1-.6 1.6v.1c-.2.5-.5 1-.7 1.5-.1.2-.2.3-.3.5-.2.4-.4.8-.7 1.2-.1.2-.2.4-.4.6-.3.4-.5.8-.8 1.2-.1.2-.2.3-.4.5-.4.6-.9 1.2-1.3 1.8 0 .1-.1.1-.1.2-.8 1-1.6 1.9-2.4 2.7-.3.3-.6.5-.9.8-.6.6-1.3 1.2-1.9 1.8-.3.3-.6.5-.9.7-.7.5-1.3 1.1-2 1.6l-.9.6c-.7.5-1.4 1-2.2 1.4-.2.2-.5.3-.7.4-.8.5-1.6.9-2.4 1.4l-.6.3c-.9.4-1.8.9-2.7 1.3-.1.1-.2.1-.3.1-1 .4-1.9.8-2.9 1.2 0 0-.1 0-.1.1-1 .4-2.1.7-3.1 1-7.9 2.5-15.3 3.1-19.7 3.3h91.9c.4 0-.4-46.3-24.5-65.1z"/></svg>