<svg version="1.1" id="レイヤー_1" xmlns="http://www.w3.org/2000/svg" x="0" y="0" width="200" height="200" xml:space="preserve"><style>.st0{fill:#8a2786}</style><path class="st0" d="M30.1 115.2v68.6h48.1v-59.9h40.1v59.9h48.2v-68.6L98.3 47.1z"/><path class="st0" d="M156.4 74.3h.4V31.1h-19v24.6L98.3 16.2 4.1 110.3h21l73.2-73.1 73.2 73.1h20.9z"/><path d="M100.6 104.3c-6.2-3.8-12.6-4.7-16.9-5.3-.2 0-.5-.1-.8-.1l-20-29.7c-.1-.7-.1-1.3-.2-2-.1-1.4-.1-2.9-.1-4.3-.1-8.2-.3-18.3-11.4-28.3-10-9-24.9-10.2-36.1-2.8-1.4.9-2.5 2.2-3.2 3.7-.5 1.1-.8 2.2-.9 3.3-.2 2 .4 3.9 1.4 5.6-2.3.8-4.1 2.6-5.2 5-6.3 14.9.6 27.7 9.7 33.3 6.2 3.8 12.6 4.7 16.8 5.3 4.3 6.4 14.5 21.4 21 31.1v.7c.1 1.5.1 2.9.1 4.3.1 8.2.3 18.3 11.4 28.3 5.6 5 12.7 7.6 19.9 7.6 5.6 0 11.3-1.6 16.2-4.8 2.4-1.5 3.9-4.1 4.1-6.9.2-2-.4-4-1.4-5.6 2.4-.9 4.3-2.7 5.2-5 6.4-15-.5-27.8-9.6-33.4zm-21.1 12.5l-6.4 6.9c0-1.6 0-3.2-.1-4.9-.1-1.2-.2-2.3-.3-3.5l-.1-.6v-.2c.1 0 .1.1.1.1.6.4 1.2.7 1.7.9 1.6.6 3.3 1 5.1 1.3zM44.4 63.2c0 1.6 0 3.2.1 4.9.1 1.7.3 3.3.5 5-1.3-1.5-2-1.7-3-2.1-1.3-.5-2.7-.7-4.1-1l6.5-6.8z" fill="#fff"/><path class="st0" d="M98.1 108.3c-5.3-3.3-10.9-4.1-15-4.6-.9-.1-2.2-.3-2.9-.5L58.3 70.9c-.2-1.1-.3-2.3-.4-3.5-.1-1.5-.1-3-.1-4.5-.1-8-.2-16.2-9.8-24.8-8.4-7.6-20.9-8.5-30.3-2.4-.7.4-1.2 1-1.5 1.7-.2.5-.4 1-.4 1.6-.1 1.3.4 2.6 1.4 3.5l15.2 13.7-3 3.2-11-9.9c-1-.9-2.5-1.3-3.8-1-1.3.3-2.4 1.2-3 2.5-2.8 6.8-4.3 20 7.8 27.5 5.3 3.3 10.9 4.1 15 4.6.8.1 1.5.2 2.1.3 3.1 4.5 13.7 20.3 22.9 33.9.1.7.1 1.4.2 2.1.1 1.5.1 2.9.1 4.4.1 8 .2 16.2 9.8 24.8 4.7 4.2 10.7 6.4 16.7 6.4 4.7 0 9.4-1.3 13.6-4 1.1-.7 1.8-1.9 1.9-3.3.1-1.3-.4-2.7-1.4-3.5L85 130.5l3-3.2c1 1 2.3 2.1 3.9 3.5l7.1 6.4c1 .9 2.5 1.3 3.8 1 1.4-.3 2.5-1.3 3-2.5 2.9-6.7 4.4-19.9-7.7-27.4zm-13.5 10l-8.8 9.5c-.8.8-1.2 2-1.1 3.1.1 1.1.6 2.2 1.4 3L89.6 146c-5 1-10.4-.3-14.3-3.8-6.8-6.1-6.8-11.3-6.9-18.5 0-1.5 0-3.1-.1-4.8-.1-1.1-.2-2.1-.3-3.1l-.1-.6c-.1-.7-.3-1.3-.7-1.8C42 76.1 42 76.1 40.5 75.6c-1.4-.5-3.1-.7-4.9-1-3.5-.5-7.9-1.1-11.7-3.4-4.4-2.7-5.7-6.6-5.7-10.1l8.6 7.7c1.7 1.6 4.5 1.4 6-.3l8.8-9.6c.8-.8 1.2-2 1.1-3.1-.1-1.1-.6-2.2-1.4-3L28 40.7c5-1 10.4.3 14.3 3.8 6.8 6.1 6.8 11.3 6.9 18.7 0 1.5 0 3 .1 4.6.1 1.9.3 3.7.6 5.5.1.6.3 1.1.7 1.6l23 34c.4.6 1 1.1 1.5 1.4.4.3.8.5 1.2.6 1.5.7 3.3.9 5.6 1.2 3.5.5 7.9 1.1 11.7 3.4 4.4 2.7 5.7 6.6 5.7 10.1l-5.3-4.7c-1.9-1.7-3.3-3-3.3-3-1.8-1.4-4.5-1.3-6.1.4z"/></svg>