<svg xmlns="http://www.w3.org/2000/svg" width="100" height="100"><path d="M81.8 28.9H77c-.5-11-7.7-20.3-17.6-24v14c0 .7-.5 1.2-1.2 1.2h-2c-.6 0-1.2-.5-1.2-1.2V0H44.9v19c0 .7-.5 1.2-1.2 1.2h-2c-.7 0-1.2-.5-1.2-1.2V5c-9.9 3.7-17 13-17.6 24h-4.8v9.3h63.6v-9.4zM63.2 48.7c0-1.6-1.3-3-3-3-1.6 0-3 1.3-3 3 0 1.6 1.3 3 3 3s3-1.3 3-3z"/><circle cx="39.7" cy="48.7" r="3"/><path d="M50 65c4.5 0 8.5-2.8 10-6.9.3-1-.1-2-1.1-2.4-.9-.3-2 .1-2.4 1.1-1 2.7-3.6 4.5-6.5 4.5s-5.5-1.8-6.5-4.5c-.3-.9-1.4-1.4-2.4-1.1-1 .3-1.4 1.4-1.1 2.4 1.5 4.1 5.5 6.9 10 6.9z"/><path d="M69.8 66c5.1-5.4 8.3-12.8 8.3-21 0-1.6-.1-3.1-.4-4.6h-5.6c.3 1.5.4 3 .4 4.6 0 8-3.7 15.1-9.4 19.5C59.5 67.4 54.9 69 50 69s-9.5-1.7-13.2-4.6C31.1 60.1 27.4 53 27.4 45c0-1.6.1-3.1.4-4.6h-5.6c-.2 1.5-.4 3-.4 4.6 0 8.2 3.2 15.6 8.3 20.9-12 4.3-20.7 15.8-20.7 29.3v4.8h5.9v-4.8c0-10.5 6.6-19.5 15.8-23.2l4.5 12L50 76.7 64.3 84l4.5-12c9.2 3.7 15.8 12.7 15.8 23.2v4.8h5.9v-4.8c.1-13.5-8.6-25-20.7-29.2zM35 70.8c.4-.1.7-.2 1.1-.2 3.1 1.9 6.5 3.1 10.1 3.6l-8.3 4.2-2.9-7.6zm27.2 7.7l-8.3-4.2c3.7-.5 7.1-1.8 10.1-3.6.4.1.7.2 1.1.2l-2.9 7.6z"/></svg>