<svg version="1.1" id="レイヤー_1" xmlns="http://www.w3.org/2000/svg" x="0" y="0" width="200" height="200" xml:space="preserve"><style>.st0{fill:#f3e521}</style><path class="st0" d="M64.8 116.1l-8.5-24.9-2.5-7.4-1.6-4.7h15.6l-2.3-7-5.1-15.8-11.7-35.8H6.5l28.3 43.3h-31z"/><path class="st0" d="M73.7 73.8l1 3c.7 2.2.3 4.6-1 6.5-1.4 1.9-3.6 3-5.9 3h-5.4l9.4 27.4c1.1 3.1-.1 6.5-2.8 8.4-1.2.8-2.7 1.3-4.1 1.3-1.7 0-3.4-.6-4.7-1.7l-18.4-15.8-11.9 11.8v68.5H78v-59.8h40.2v59.8h48.2v-68.5L98.1 49.5 73.7 73.8zM25.1 91.6L3.8 112.8h21l11.5-11.6z"/><path class="st0" d="M156.4 76.8h.3V33.5h-19v24.6L98.1 18.6l-32 32 5.2 15.8 26.8-26.8 73.3 73.2h21z"/></svg>