<svg xmlns="http://www.w3.org/2000/svg" width="100" height="100"><path d="M65.7 47.7H54c-.4-.7-.9-1.2-1.6-1.6V27c0-1.3-1.1-2.4-2.4-2.4-1.3 0-2.4 1.1-2.4 2.4v19.1c-1.3.8-2.2 2.3-2.2 3.9 0 2.6 2.1 4.6 4.6 4.6 1.6 0 3.1-.8 3.9-2.1h11.8c1.3 0 2.4-1.1 2.4-2.4 0-1.3-1-2.4-2.4-2.4zM50 12c-20.9 0-37.8 17-37.8 38S29.1 88 50 88s37.8-17 37.8-38S70.9 12 50 12zm21.6 59.7c-5.5 5.6-13.1 9-21.6 9-8.4 0-16-3.4-21.6-9-5.5-5.6-9-13.2-9-21.7s3.4-16.2 9-21.7c5.5-5.6 13.1-9 21.6-9 8.4 0 16 3.4 21.6 9 5.5 5.6 9 13.2 9 21.7-.1 8.5-3.5 16.2-9 21.7z"/></svg>