<svg version="1.1" id="レイヤー_1" xmlns="http://www.w3.org/2000/svg" x="0" y="0" width="200" height="254.4" xml:space="preserve"><style>.st0{fill:#d71618}</style><path class="st0" d="M49.2 143.8c1.3 0 13.8-9.8 13.8-21.8 0-10.4-4.6-19.1-10.9-21.3l-3 7.6-3-7.6c-6.2 2.1-10.9 10.8-10.9 21.3.1 12 12.7 21.8 14 21.8zM16.9 155.1c11.4 3.7 24.6-5.2 25-6.4.4-1.3-5-16.2-16.4-19.9-9.9-3.2-19.6-1.5-23.6 3.8l6.3 5.2-8.2.4c.1 6.6 6.9 13.7 16.9 16.9zM42.6 182.9c7.1-9.7 2.7-25 1.6-25.8-1.1-.8-16.9-.2-24 9.5-6.1 8.4-7.5 18.2-3.7 23.6l6.9-4.4-2.1 7.9c6.3 1.9 15.2-2.4 21.3-10.8zM77 167c-7.1-9.7-22.9-10.3-24-9.5-1.1.8-5.5 16 1.6 25.8 6.1 8.4 15 12.8 21.3 10.8l-2.1-7.9 6.9 4.4c3.8-5.4 2.4-15.2-3.7-23.6zM56 149.3c.4 1.3 13.6 10.2 25 6.4 9.9-3.2 16.8-10.3 16.9-16.9l-8.2-.5 6.3-5.2c-4-5.3-13.7-7-23.6-3.8-11.4 3.8-16.8 18.7-16.4 20z"/><g><path class="st0" d="M134.9 24.6c.8 0 7.9-5.6 7.9-12.5 0-6-2.7-11-6.2-12.2l-1.7 4.4-1.7-4.3c-3.6 1.2-6.2 6.2-6.2 12.2 0 6.9 7.2 12.4 7.9 12.4zM116.4 31.1c6.6 2.1 14.1-3 14.3-3.7.2-.7-2.9-9.3-9.4-11.4-5.7-1.8-11.2-.9-13.5 2.2l3.6 3-4.7.3c.1 3.7 4.1 7.8 9.7 9.6zM131.2 47c4-5.6 1.5-14.3.9-14.8-.6-.4-9.7-.1-13.7 5.4-3.5 4.8-4.3 10.4-2.1 13.5l4-2.5-1.2 4.5c3.5 1.2 8.6-1.3 12.1-6.1zM150.8 37.9c-4-5.6-13.1-5.9-13.7-5.4-.6.4-3.1 9.2.9 14.8 3.5 4.8 8.6 7.3 12.2 6.2L149 49l3.9 2.5c2.2-3.2 1.5-8.8-2.1-13.6zM138.9 27.8c.2.7 7.8 5.8 14.3 3.7 5.7-1.8 9.6-5.9 9.7-9.7l-4.7-.3 3.6-3c-2.3-3-7.8-4-13.5-2.2-6.6 2.2-9.7 10.7-9.4 11.5z"/></g><g><path class="st0" d="M176.5 230c.6 0 6.7-4.7 6.7-10.5 0-5-2.2-9.2-5.2-10.3l-1.4 3.7-1.4-3.7c-3 1-5.2 5.2-5.2 10.3-.2 5.8 5.9 10.5 6.5 10.5zM160.9 235.4c5.5 1.8 11.9-2.5 12.1-3.1.2-.6-2.4-7.8-7.9-9.6-4.8-1.6-9.5-.7-11.4 1.8l3 2.5-3.9.2c.1 3.2 3.4 6.7 8.1 8.2zM173.4 248.8c3.4-4.7 1.3-12 .8-12.4-.5-.4-8.2-.1-11.6 4.6-3 4.1-3.6 8.8-1.8 11.4l3.3-2.1-1 3.8c3 .9 7.3-1.2 10.3-5.3zM189.9 241.1c-3.4-4.7-11.1-4.9-11.6-4.6-.5.4-2.6 7.7.8 12.4 3 4.1 7.2 6.1 10.3 5.2l-1-3.8 3.3 2.1c1.8-2.5 1.2-7.2-1.8-11.3zM179.8 232.6c.2.6 6.5 4.9 12.1 3.1 4.8-1.6 8.1-5 8.1-8.1l-3.9-.2 3.1-2.5c-1.9-2.5-6.6-3.4-11.4-1.8-5.6 1.7-8.2 8.9-8 9.5z"/></g></svg>