<svg version="1.1" id="レイヤー_1" xmlns="http://www.w3.org/2000/svg" x="0" y="0" width="100" height="100" xml:space="preserve"><style>.st0{fill:#fff}.st1{fill:#231815}</style><path class="st0" d="M69.8 80.2l-3.6-2.8c-.3-.3-2.4-2-3.7-5.4-1.2-3.3-1.5-4.3-2.8-9.2-1.7-6.2-3.2-9.4-4.4-16.1 0 0-1.1-7.3-1.3-11.8 0-.7 0-4.7-1.2-5.3-2-.9-5.8.4-5.9 10.5-.1 5.7-1.6 12-3.8 14-1.5 1.3-3.2 1.9-4.5 1.6-1-.2-3.7-.7-8.7-4.3L6.6 34s-3-2.8-5.2.1c-2 2.6 1.4 5.1 1.4 5.1l16.4 13.7c1.7 1.4 2.5 3.6 2 5.7l-4.1 20.8c-1 6.6 18 14.4 30 15.5 2.2.2 3.3.5 5.1 1.8l3.4 2.4 14.2-18.9z"/><path class="st1" d="M55.6 100c-.2 0-.3-.1-.5-.2l-3.4-2.4c-1.7-1.2-2.6-1.5-4.7-1.7-4.9-.4-11.1-2-16.7-4.2-6-2.4-10.5-5.2-12.7-7.9-1.2-1.5-1.6-2.9-1.4-4.3l4.1-20.8c.4-1.8-.3-3.7-1.8-4.9L2.3 39.8c-.2-.2-2-1.6-2.3-3.4-.1-1 .1-1.9.7-2.8.7-1 1.7-1.5 2.7-1.6 1.8-.2 3.4 1.1 3.7 1.4L30.4 51c4.8 3.5 7.4 3.9 8.3 4.1 1.1.2 2.6-.4 3.8-1.4C44.4 52 46 46.1 46 40.3c.1-7.2 2-9.9 3.6-11 1.1-.7 2.4-.8 3.5-.3 1.4.6 1.7 3.1 1.7 5.7v.3c.2 4.3 1.2 11.3 1.3 11.7.8 4.2 1.7 7.1 2.6 10.1.6 1.8 1.2 3.7 1.8 5.9 1.3 4.8 1.6 5.8 2.8 9.1 1.2 3.4 3.4 5 3.4 5l3.6 2.8c.4.3.4.8.2 1.2-.3.4-.8.4-1.2.2l-3.6-2.8c-.1-.1-2.5-1.9-3.9-5.8-1.2-3.3-1.5-4.4-2.8-9.2-.6-2.2-1.2-4.1-1.7-5.9-1-3.1-1.9-6-2.7-10.3 0-.1-1.1-7.4-1.3-11.9v-.4c-.1-3.6-.6-4.1-.7-4.2-.3-.1-1-.4-1.9.2-1 .7-2.8 2.8-2.8 9.6-.1 5.5-1.5 12.3-4.1 14.6-1.8 1.4-3.8 2.1-5.4 1.8-1-.2-3.9-.7-9-4.4L6.1 34.7l-.1-.1s-1.2-1.1-2.4-1c-.6.1-1.1.4-1.5 1-.4.5-.5 1-.4 1.5.2 1.3 1.6 2.4 1.6 2.4l16.4 13.7c1.9 1.6 2.8 4.1 2.3 6.5l-4.1 20.7c-.1.9.2 1.9 1.1 3C22.5 87 35.6 93 47.2 94.1c2.2.2 3.5.5 5.5 2l3.4 2.4c.4.3.5.8.2 1.2-.2.2-.4.3-.7.3z"/><g><path class="st0" d="M18.6 83.5c-2-1.1-2.7-3.2-1.8-5.5.3-.8.9-1.6 1.5-2.1-2.2-1.3-2.8-3.6-2.3-5.7.3-1.3 1.7-3.3 2.7-3.8-2-1.3-1.6-4.5-.6-6.1 1.2-2 3.4-3.6 5.6-2.3l9.8 5.4c2.5 1.6 3 3.9 2.1 5.9-.8 1.9-1.9 1.9-2.9 2.3 1.1 1.2 1.4 2.7.7 4.8-.5 1.5-1.4 2.4-2.4 2.8.7 1 .9 2.6.1 4.4-.6 1.5-1.9 2.1-4.1 1.8-1 0-5.7-.9-8.4-1.9z"/><path class="st1" d="M28.1 86.5c-.4 0-.7 0-1.1-.1-1.1-.2-5.9-1.2-8.6-2.2 0 0-.1 0-.1-.1-2.4-1.3-3.3-3.9-2.2-6.5.3-.6.6-1.2 1-1.6-1.6-1.4-2.3-3.6-1.8-5.9.2-1.1 1.2-2.7 2.2-3.7-1.4-1.8-1-4.8-.1-6.4 1.4-2.3 4.1-4.1 6.7-2.6l9.8 5.4h.1c2.7 1.7 3.6 4.3 2.4 7-.7 1.6-1.5 2.1-2.3 2.4.7 1.3.8 2.9.2 4.6-.5 1.5-1.3 2.3-2 2.9.5 1.3.4 2.8-.2 4.4-.7 1.2-1.7 2.4-4 2.4zM19 82.7c2.6.9 7.1 1.9 8.2 2.1 2.2.3 2.9-.6 3.2-1.3.6-1.4.6-2.7 0-3.6-.1-.2-.2-.5-.1-.7.1-.2.2-.4.4-.5.6-.3 1.5-.9 1.9-2.3.6-1.7.4-2.9-.6-4-.2-.2-.2-.5-.2-.8.1-.3.3-.5.5-.6.2-.1.3-.1.5-.2.8-.2 1.3-.4 1.9-1.7.8-1.9.2-3.6-1.8-4.9l-9.8-5.4c-.9-.5-2.8-.7-4.5 2-.4.7-.7 1.7-.6 2.7 0 .7.2 1.7 1 2.3.3.2.4.5.4.8 0 .3-.2.6-.5.7-.6.3-1.9 2-2.2 3.2-.3 1.5 0 3.6 1.9 4.8.2.1.4.4.4.7 0 .3-.1.6-.4.7-.5.3-.9 1-1.2 1.7-.6 1.7 0 3.4 1.6 4.3z"/><g><path class="st1" d="M32.6 72.6c-.1 0-.2 0-.3-.1l-14-5.2c-.4-.2-.7-.6-.5-1.1.2-.4.6-.7 1.1-.5l14 5.2c.4.2.7.6.5 1.1-.1.4-.4.6-.8.6zM31 80.2h-.2l-12.7-3.5c-.4-.1-.7-.6-.6-1 .1-.4.6-.7 1-.6l12.7 3.5c.4.1.7.6.6 1-.1.4-.4.6-.8.6z"/></g></g><g><path class="st0" d="M59.1 26.7h-.3c-1-.2-1.6-1.1-1.4-2.1l4.3-23.1c.2-1 1.1-1.6 2.1-1.4 1 .2 1.6 1.1 1.4 2.1l-4.3 23.1c-.2.8-.9 1.4-1.8 1.4zM71.4 35.5c-.6 0-1.1-.3-1.5-.8-.5-.8-.3-1.9.5-2.5L89.8 19c.8-.6 1.9-.3 2.5.5.5.8.3 1.9-.5 2.5L72.4 35.2c-.3.2-.7.3-1 .3zM98.2 54.7h-.3l-23.1-4.3c-1-.2-1.6-1.1-1.4-2.1.2-1 1.1-1.6 2.1-1.4l23.1 4.3c1 .2 1.6 1.1 1.4 2.1-.2.8-.9 1.4-1.8 1.4z"/></g></svg>