<svg version="1.1" id="レイヤー_1" xmlns="http://www.w3.org/2000/svg" x="0" y="0" width="200" height="171.6" xml:space="preserve"><style>.st0{fill:#fff}</style><path class="st0" d="M21.6 70.7c.6 0 6-4.3 6-9.5 0-4.6-2-8.4-4.7-9.3l-1.3 3.3-1.3-3.3c-2.7.9-4.7 4.7-4.7 9.3 0 5.3 5.5 9.5 6 9.5zM7.5 75.7c5 1.6 10.7-2.3 10.9-2.8.2-.6-2.2-7.1-7.2-8.7-4.3-1.5-8.5-.7-10.2 1.6l2.8 2.3-3.6.2c0 2.8 3 5.9 7.3 7.4zM18.8 87.8c3.1-4.3 1.2-10.9.7-11.3-.5-.3-7.4-.1-10.5 4.2-2.7 3.7-3.3 8-1.6 10.3l3-1.9-.9 3.5c2.7.8 6.6-1.1 9.3-4.8zM33.8 80.8c-3.1-4.3-10-4.5-10.5-4.1-.5.3-2.4 7 .7 11.3 2.7 3.7 6.6 5.6 9.3 4.7l-.9-3.5 3 1.9c1.7-2.3 1.1-6.6-1.6-10.3zM24.6 73.1c.2.5 5.9 4.4 10.9 2.8 4.3-1.4 7.3-4.5 7.4-7.4l-3.6-.2 2.8-2.3c-1.7-2.3-6-3.1-10.3-1.6-5 1.6-7.4 8.2-7.2 8.7zM77.9 27.9c.9 0 9-6.3 9-14.1 0-6.8-3-12.4-7-13.8L78 4.9 76 0c-4 1.4-7 7-7 13.8 0 7.8 8.1 14.1 8.9 14.1zM57 35.2c7.4 2.4 15.9-3.4 16.2-4.2.3-.8-3.2-10.5-10.6-12.9-6.4-2.1-12.7-1-15.3 2.4l4.1 3.4-5.3.3c.1 4.3 4.5 8.9 10.9 11zM73.7 53.1c4.6-6.3 1.7-16.2 1-16.7s-11-.2-15.5 6.1c-4 5.5-4.8 11.8-2.4 15.3l4.5-2.9L60 60c4 1.4 9.7-1.4 13.7-6.9zM95.9 42.9c-4.6-6.3-14.9-6.6-15.5-6.1-.7.5-3.5 10.4 1 16.7 4 5.5 9.7 8.3 13.8 7l-1.3-5.1 4.5 2.9c2.4-3.7 1.5-10-2.5-15.4zM82.4 31.4c.3.8 8.8 6.6 16.2 4.2 6.4-2.1 10.9-6.7 10.9-10.9l-5.3-.3 4.1-3.3c-2.6-3.4-8.8-4.5-15.3-2.4-7.4 2.2-10.9 11.9-10.6 12.7z"/><g><path class="st0" d="M176.2 146.9c.6 0 6.8-4.8 6.8-10.6 0-5.1-2.3-9.3-5.3-10.4l-1.5 3.7-1.4-3.7c-3 1-5.3 5.3-5.3 10.4 0 5.8 6.1 10.6 6.7 10.6zM160.4 152.4c5.6 1.8 12-2.5 12.2-3.1.2-.6-2.4-7.9-8-9.7-4.8-1.6-9.6-.7-11.5 1.8l3.1 2.5-4 .2c.1 3.3 3.4 6.7 8.2 8.3zM173 166c3.5-4.8 1.3-12.2.8-12.6-.5-.4-8.3-.1-11.7 4.6-3 4.1-3.7 8.9-1.8 11.5l3.4-2.2-1 3.9c3 1 7.3-1.1 10.3-5.2zM189.8 158.2c-3.5-4.8-11.2-5-11.7-4.6-.5.4-2.7 7.8.8 12.6 3 4.1 7.3 6.2 10.4 5.3l-1-3.9 3.4 2.2c1.7-2.7 1.1-7.5-1.9-11.6zM179.6 149.6c.2.6 6.6 5 12.2 3.1 4.8-1.6 8.2-5 8.2-8.3l-4-.2 3.1-2.5c-1.9-2.6-6.7-3.4-11.5-1.8-5.6 1.8-8.2 9-8 9.7z"/></g><circle class="st0" cx="113.7" cy="150.9" r="4.7"/><circle class="st0" cx="126.7" cy="31.1" r="4.7"/><circle class="st0" cx="9.3" cy="136.4" r="9.3"/></svg>