<svg version="1.1" id="レイヤー_1" xmlns="http://www.w3.org/2000/svg" x="0" y="0" width="250" height="163.6" xml:space="preserve"><style>.st0{fill:#fff}</style><path class="st0" d="M221.1 133.6c.8 0 8.2-5.8 8.2-12.9 0-6.2-2.7-11.3-6.4-12.6l-1.8 4.5-1.8-4.5c-3.7 1.3-6.4 6.4-6.4 12.6 0 7.1 7.5 12.9 8.2 12.9zM202 140.3c6.8 2.2 14.6-3.1 14.8-3.8.2-.7-3-9.6-9.7-11.8-5.9-1.9-11.6-.9-14 2.2l3.7 3.1-4.8.3c.1 3.8 4.1 8 10 10zM217.3 156.7c4.2-5.8 1.6-14.8.9-15.3-.6-.5-10-.1-14.2 5.6-3.6 5-4.4 10.8-2.2 14l4.1-2.6-1.2 4.7c3.7 1.2 8.9-1.4 12.6-6.4zM237.6 147.3c-4.2-5.8-13.6-6.1-14.2-5.6-.6.5-3.2 9.5 1 15.3 3.6 5 8.9 7.6 12.6 6.4l-1.2-4.7 4.1 2.6c2.1-3.2 1.3-9-2.3-14zM225.2 136.8c.2.7 8 6 14.8 3.8 5.9-1.9 9.9-6.1 10-10l-4.8-.3 3.8-3.1c-2.3-3.1-8.1-4.1-14-2.2-6.8 2.2-10 11.1-9.8 11.8zM88.8 25.5c.8 0 8.2-5.8 8.2-12.9C97 6.4 94.3 1.3 90.6 0l-1.8 4.5L87 0c-3.7 1.3-6.4 6.4-6.4 12.6 0 7.1 7.4 12.9 8.2 12.9zM69.7 32.2c6.8 2.2 14.6-3.1 14.8-3.8.2-.7-3-9.6-9.7-11.8-5.9-1.9-11.6-.9-14 2.2l3.7 3.1-4.8.3c0 3.9 4.1 8.1 10 10zM84.9 48.6c4.2-5.8 1.6-14.8.9-15.3-.6-.5-10-.1-14.2 5.6-3.6 5-4.4 10.8-2.2 14l4.1-2.6-1.2 4.7c3.7 1.2 9-1.4 12.6-6.4zM105.3 39.2c-4.2-5.8-13.6-6.1-14.2-5.6-.6.5-3.2 9.5 1 15.3 3.6 5 8.9 7.6 12.6 6.4l-1.2-4.7 4.1 2.6c2.1-3.2 1.3-9-2.3-14zM92.9 28.7c.2.7 8 6 14.8 3.8 5.9-1.9 9.9-6.1 10-10l-4.8-.3 3.8-3.1c-2.3-3.1-8.1-4.1-14-2.2-6.9 2.2-10.1 11.1-9.8 11.8z"/><g><path class="st0" d="M45.6 50.1c.4 0 4-2.8 4-6.3 0-3-1.3-5.5-3.1-6.1l-.9 2.2-.9-2.2c-1.8.6-3.1 3.1-3.1 6.1 0 3.4 3.6 6.3 4 6.3zM36.3 53.3c3.3 1.1 7.1-1.5 7.2-1.9.1-.4-1.4-4.7-4.7-5.7-2.9-.9-5.7-.4-6.8 1.1l1.8 1.5-2.4.1c0 1.9 2 4 4.9 4.9zM43.7 61.3c2-2.8.8-7.2.5-7.4-.3-.2-4.9-.1-6.9 2.7-1.8 2.4-2.2 5.3-1.1 6.8l2-1.3-.6 2.3c1.8.6 4.3-.6 6.1-3.1zM53.6 56.7c-2-2.8-6.6-3-6.9-2.7-.3.2-1.6 4.6.5 7.4 1.8 2.4 4.3 3.7 6.1 3.1l-.6-2.3 2 1.3c1.1-1.5.7-4.3-1.1-6.8zM47.6 51.6c.1.4 3.9 2.9 7.2 1.9 2.9-.9 4.8-3 4.9-4.9l-2.4-.1 1.8-1.5c-1.1-1.5-3.9-2-6.8-1.1-3.3 1.1-4.8 5.4-4.7 5.7z"/></g><circle class="st0" cx="4.3" cy="57.8" r="4.3"/><circle class="st0" cx="190.7" cy="54.8" r="7.3"/><circle class="st0" cx="166.7" cy="150.7" r="6.7"/></svg>